<?xml version="1.0" standalone="no"?>
<!DOCTYPE svg PUBLIC "-//W3C//DTD SVG 1.1//EN" "http://www.w3.org/Graphics/SVG/1.1/DTD/svg11.dtd" >
<svg>
<metadata>
Created by FontForge 20090622 at Wed Feb 24 08:15:00 2016
 By deploy user
Copyright &#194;&#169; 1991, 2002 Adobe Systems Incorporated.  All Rights Reserved.
</metadata>
<defs>
<font id="BerlingLTStd-Roman" horiz-adv-x="278" >
  <font-face 
    font-family="Berling LT Std Roman"
    font-weight="400"
    font-stretch="normal"
    units-per-em="1000"
    panose-1="2 4 5 2 5 3 5 2 3 3"
    ascent="790"
    descent="-210"
    x-height="447"
    cap-height="709"
    bbox="-163 -233 1074 959"
    underline-thickness="50"
    underline-position="-50"
    unicode-range="U+0020-U+FB02"
  />
<missing-glyph horiz-adv-x="500" 
d="M0 0v700h500v-700h-500zM250 395l170 255h-340zM280 350l170 -255v510zM80 50h340l-170 255zM50 605v-510l170 255z" />
    <glyph glyph-name="fi" unicode="fi" horiz-adv-x="556" 
d="M40 -3v30h15q39 0 49 15t10 73v287h-94l8 42h86v133q0 33 9.5 65.5t32.5 66t70 54.5t113 21q32 0 108 -10v-120h-28q-1 43 -29.5 69.5t-82.5 26.5q-117 0 -117 -142v-164h139q84 0 126 19h10v-372q0 -42 10.5 -53t40.5 -11h20v-30q-14 0 -37 1t-42 1.5t-35 0.5
q-1 0 -112 -3v30h20q30 0 44.5 16.5t14.5 66.5v207q0 54 -18.5 69.5t-90.5 15.5h-90v-287q0 -58 10 -73t49 -15h15v-30q-90 3 -115 3q-40 0 -109 -3z" />
    <glyph glyph-name="fl" unicode="fl" horiz-adv-x="574" 
d="M123 444v133q0 83 50 145t149 62q27 0 60 -5q24 -4 54 -4q23 0 32 15h9q-3 -35 -3 -190v-509q0 -42 10.5 -53t40.5 -11h20v-30q-14 0 -37 1t-42 1.5t-35 0.5q-1 0 -112 -3v30h20q30 0 44.5 16.5t14.5 66.5v514q0 23 -0.5 35.5t-5.5 32t-14.5 29t-28.5 17.5t-47 8
q-53 0 -78 -35t-25 -92v-175h131l-21 -42h-110v-287q0 -58 10 -73t49 -15h15v-30q-90 3 -107 3q-24 0 -117 -3v30h15q39 0 49 15t10 73v287h-94l8 42h86z" />
    <glyph glyph-name=".notdef" horiz-adv-x="500" 
d="M0 0v700h500v-700h-500zM250 395l170 255h-340zM280 350l170 -255v510zM80 50h340l-170 255zM50 605v-510l170 255z" />
    <glyph glyph-name=".null" horiz-adv-x="0" 
 />
    <glyph glyph-name="nonmarkingreturn" horiz-adv-x="333" 
 />
    <glyph glyph-name="space" unicode=" " 
 />
    <glyph glyph-name="exclam" unicode="!" horiz-adv-x="315" 
d="M213 712l-39 -455l-18 -22l-8 3l-22 313q-4 62 -16.5 80.5t-42.5 18.5q-15 0 -37 -6l-6 25l177 43h12zM108 42q0 22 15 37t37 15t37 -15t15 -37t-15 -37t-37 -15t-37 15t-15 37z" />
    <glyph glyph-name="quotedbl" unicode="&#x22;" horiz-adv-x="370" 
d="M290 621l-15 -124q-4 -25 -17 -25t-17 25l-15 124q-4 30 -4 53q0 48 36 48t36 -48q0 -23 -4 -53zM144 621l-15 -124q-4 -25 -17 -25t-17 25l-15 124q-4 30 -4 53q0 48 36 48t36 -48q0 -23 -4 -53z" />
    <glyph glyph-name="numbersign" unicode="#" horiz-adv-x="556" 
d="M296 0l31 224h-134l-31 -224h-56l31 224h-110v52h117l22 154h-110v52h117l31 224h56l-31 -224h134l31 224h56l-31 -224h110v-52h-117l-22 -154h110v-52h-117l-31 -224h-56zM334 276l22 154h-134l-22 -154h134z" />
    <glyph glyph-name="dollar" unicode="$" horiz-adv-x="556" 
d="M260 426v252q-54 -5 -86.5 -37t-32.5 -78q0 -82 95 -126zM302 303v-275q54 10 87.5 44t33.5 86q0 30 -10 53.5t-31 41t-37 27.5t-43 23zM260 -80v70h-14q-100 0 -178 25l-3 162h28q8 -51 32.5 -85.5t55.5 -47t48.5 -16.5t30.5 -4v298l-70 32q-22 10 -37 19.5t-39.5 30
t-38.5 51.5t-14 69q0 74 55 129t144 63v66h42v-66q49 -3 170 -26v-165h-34q-10 138 -136 153v-271l44 -20q149 -65 149 -184q0 -83 -50 -139.5t-143 -69.5v-74h-42z" />
    <glyph glyph-name="percent" unicode="%" horiz-adv-x="796" 
d="M503 188q0 -87 20 -131.5t68 -44.5t68 44.5t20 131.5q0 184 -88 184t-88 -184zM443 188q0 99 40 152.5t108 53.5t108 -53.5t40 -152.5q0 -95 -40 -146.5t-108 -51.5t-108 51.5t-40 146.5zM57 510q0 99 40 152.5t108 53.5t108 -53.5t40 -152.5q0 -95 -40 -146.5
t-108 -51.5t-108 51.5t-40 146.5zM117 510q0 -87 20 -131.5t68 -44.5t68 44.5t20 131.5q0 184 -88 184t-88 -184zM219 -16l316 738h42l-316 -738h-42z" />
    <glyph glyph-name="ampersand" unicode="&#x26;" horiz-adv-x="722" 
d="M375 554q0 46 -32 88t-88 42q-36 0 -68.5 -28t-32.5 -76q0 -24 29.5 -66.5t49 -64t36.5 -38.5q39 29 56.5 43.5t33.5 41.5t16 58zM433 347v30q81 -3 89 -3q44 0 122 3v-30q-52 0 -66 -13.5t-21 -67.5q-9 -75 -37 -133q57 -71 90 -88.5t101 -17.5v-30q-63 3 -73 3
q-16 0 -103 -3l-61 66q-28 -31 -81 -55t-127 -24q-94 0 -153 54.5t-59 131.5q0 106 147 197q-32 33 -50 54.5t-35.5 58t-17.5 70.5q0 78 57.5 125t130.5 47q63 0 112 -39t49 -104q0 -54 -36.5 -93.5t-125.5 -94.5l212 -231q21 47 21 119q0 43 -19.5 55.5t-65.5 12.5zM454 89
l-235 257q-85 -56 -85 -148q0 -63 51.5 -117.5t132.5 -54.5q41 0 80 19.5t56 43.5z" />
    <glyph glyph-name="quotesingle" unicode="'" 
d="M171 621l-15 -124q-4 -25 -17 -25t-17 25l-15 124q-4 30 -4 53q0 48 36 48t36 -48q0 -23 -4 -53z" />
    <glyph glyph-name="parenleft" unicode="(" horiz-adv-x="389" 
d="M376 737v-38h-23q-55 0 -91.5 -28.5t-56 -90t-26.5 -138t-7 -190.5t7 -190.5t26.5 -138t56 -90t91.5 -28.5h23v-38h-20q-65 0 -112 22.5t-83.5 76t-54.5 150t-18 236.5t18 236.5t54.5 150t83.5 76t112 22.5h20z" />
    <glyph glyph-name="parenright" unicode=")" horiz-adv-x="389" 
d="M13 -233v38h23q55 0 91.5 28.5t56 90t26.5 138t7 190.5t-7 190.5t-26.5 138t-56 90t-91.5 28.5h-23v38h20q65 0 112 -22.5t83.5 -76t54.5 -150t18 -236.5t-18 -236.5t-54.5 -150t-83.5 -76t-112 -22.5h-20z" />
    <glyph glyph-name="asterisk" unicode="*" horiz-adv-x="408" 
d="M237 706l-19 -136l106 82l32 -56l-123 -51l123 -50l-32 -57l-106 83l19 -136h-65l19 136l-107 -83l-32 57l124 50l-124 51l32 56l107 -82l-19 136h65z" />
    <glyph glyph-name="plus" unicode="+" horiz-adv-x="600" 
d="M270 0v223h-223v60h223v223h60v-223h223v-60h-223v-223h-60z" />
    <glyph glyph-name="comma" unicode="," 
d="M50 -199l-16 20q70 59 70 142q0 44 -20 84l93 55q7 -37 7 -63q0 -73 -38.5 -135.5t-95.5 -102.5z" />
    <glyph glyph-name="hyphen" unicode="-" horiz-adv-x="352" 
d="M35 198l24 72h258l-24 -72h-258z" />
    <glyph glyph-name="period" unicode="." 
d="M87 42q0 22 15 37t37 15t37 -15t15 -37t-15 -37t-37 -15t-37 15t-15 37z" />
    <glyph glyph-name="slash" unicode="/" horiz-adv-x="370" 
d="M-4 -16l314 738h64l-314 -738h-64z" />
    <glyph glyph-name="zero" unicode="0" horiz-adv-x="556" 
d="M35 321q0 99 19 174t46.5 115.5t63 66t62 32.5t51.5 7q48 0 90 -20t77.5 -60t56 -110t20.5 -162q0 -74 -12 -137t-39 -118.5t-77 -87t-120 -31.5q-105 0 -171.5 85.5t-66.5 245.5zM123 351q0 -43 1.5 -74t6 -73.5t14.5 -71.5t26.5 -56.5t43.5 -41.5t62 -14
q85 0 120.5 80.5t35.5 246.5q0 165 -33.5 252t-118.5 87q-158 0 -158 -335z" />
    <glyph glyph-name="one" unicode="1" horiz-adv-x="556" 
d="M150 -3v30h15q45 0 60.5 16t15.5 61v499q0 33 -14.5 46t-47.5 13q-34 0 -57 -7v34l185 17h18v-602q0 -48 14 -62.5t49 -14.5h19v-30q-90 3 -125 3q-36 0 -132 -3z" />
    <glyph glyph-name="two" unicode="2" horiz-adv-x="556" 
d="M492 76v-76h-436l-7 6q5 26 20 52t55 74l95 115q98 119 128.5 178.5t30.5 110.5q0 112 -137 112q-43 0 -88.5 -18t-74.5 -46h-11q8 30 12 101q90 31 164 31q119 0 171 -48.5t52 -112.5q0 -107 -124 -238q-181 -191 -221 -241h371z" />
    <glyph glyph-name="three" unicode="3" horiz-adv-x="556" 
d="M57 16l-15 108l11 3q77 -95 181 -95q59 0 106 40t47 114q0 24 -9 49.5t-29 52t-59.5 44.5t-92.5 20l23 62q14 -2 20 -2q50 0 88.5 40t38.5 89q0 47 -33.5 81t-98.5 34q-40 0 -86 -19.5t-78 -50.5h-11l-3 98q105 32 185 32q100 0 152.5 -47t52.5 -111q0 -36 -13 -63.5
t-37 -45.5t-42.5 -27t-43.5 -18v-2q74 -17 115 -71t41 -114q0 -102 -79 -164.5t-184 -62.5q-87 0 -147 26z" />
    <glyph glyph-name="four" unicode="4" horiz-adv-x="556" 
d="M328 265l2 327l-2 2l-232 -329h232zM326 0l2 209h-307l-5 11l378 526h17l-4 -481h85q-4 -13 -4 -29q0 -10 4 -27h-85l-1 -209h-80z" />
    <glyph glyph-name="five" unicode="5" horiz-adv-x="556" 
d="M91 389l37 317h325l-11 -72h-288l-19 -159q28 2 41 2q73 0 129.5 -18t87.5 -44.5t50.5 -60.5t25.5 -61t6 -52q0 -103 -74 -177t-193 -74q-75 0 -137 28l4 91l7 3q68 -74 165 -74q78 0 123 49.5t45 108.5q0 56 -23.5 96t-64 60t-83.5 28.5t-94 8.5h-59z" />
    <glyph glyph-name="six" unicode="6" horiz-adv-x="556" 
d="M508 691l-4 -115h-16q-8 35 -27 58.5t-42 32.5t-38 12t-29 3q-93 0 -149.5 -80t-70.5 -222v-9h2q59 79 163 79q79 0 142 -57t63 -167q0 -101 -64 -168.5t-156 -67.5q-101 0 -167.5 77.5t-66.5 224.5q0 49 7.5 100t30 111t57.5 105.5t95.5 76.5t138.5 31q63 0 131 -25z
M136 242q0 -104 45 -161t101 -57q63 0 101.5 45.5t38.5 129.5q0 94 -42.5 153.5t-111.5 59.5q-61 0 -96.5 -51.5t-35.5 -118.5z" />
    <glyph glyph-name="seven" unicode="7" horiz-adv-x="556" 
d="M147 0l280 630h-352v76h418v-12l-286 -694h-60z" />
    <glyph glyph-name="eight" unicode="8" horiz-adv-x="556" 
d="M62 522q0 78 57.5 136t167.5 58q89 0 144 -49.5t55 -123.5q0 -64 -38 -103t-109 -68q38 -16 61 -29t48 -34.5t37 -51t12 -68.5q0 -30 -10 -60.5t-33 -63.5t-71.5 -54t-115.5 -21q-34 0 -69 11t-66.5 31.5t-52 57t-20.5 81.5q0 65 35.5 102.5t118.5 69.5
q-70 36 -110.5 76.5t-40.5 102.5zM119 185q0 -63 52.5 -112t121.5 -49t106.5 37.5t37.5 89.5q0 24 -10 45.5t-20 34.5t-36.5 31t-36.5 23.5t-44.5 22t-37.5 18.5q-133 -44 -133 -141zM426 527q0 65 -48 110t-120 45q-58 0 -93 -37.5t-35 -82.5t46 -86t131 -83
q119 47 119 134z" />
    <glyph glyph-name="nine" unicode="9" horiz-adv-x="556" 
d="M59 7l-4 114h16q13 -43 49.5 -70t83.5 -27q73 0 124 51.5t72 121.5t21 148l-2 2q-65 -92 -173 -92q-25 0 -51.5 7t-54.5 24t-49.5 42.5t-35.5 65.5t-14 89q0 91 59 162t159 71q42 0 82 -18t76 -54t58 -101t22 -149q0 -52 -9 -104t-32 -107t-58.5 -97t-94.5 -69t-133 -27
q-52 0 -111 17zM117 520q0 -88 41.5 -157.5t113.5 -69.5q60 0 98.5 42t38.5 119q0 16 -3 39t-13.5 57.5t-27 62.5t-47.5 48.5t-71 20.5q-63 0 -96.5 -46t-33.5 -116z" />
    <glyph glyph-name="colon" unicode=":" 
d="M87 42q0 22 15 37t37 15t37 -15t15 -37t-15 -37t-37 -15t-37 15t-15 37zM87 402q0 22 15 37t37 15t37 -15t15 -37t-15 -37t-37 -15t-37 15t-15 37z" />
    <glyph glyph-name="semicolon" unicode=";" 
d="M50 -199l-16 20q70 59 70 142q0 44 -20 84l93 55q7 -37 7 -63q0 -73 -38.5 -135.5t-95.5 -102.5zM87 402q0 22 15 37t37 15t37 -15t15 -37t-15 -37t-37 -15t-37 15t-15 37z" />
    <glyph glyph-name="less" unicode="&#x3c;" horiz-adv-x="600" 
d="M553 514v-64l-434 -197l434 -197v-64l-506 233v56z" />
    <glyph glyph-name="equal" unicode="=" horiz-adv-x="600" 
d="M47 321v60h506v-60h-506zM47 125v60h506v-60h-506z" />
    <glyph glyph-name="greater" unicode="&#x3e;" horiz-adv-x="600" 
d="M47 -8v64l434 197l-434 197v64l506 -233v-56z" />
    <glyph glyph-name="question" unicode="?" horiz-adv-x="426" 
d="M55 615l9 81q46 16 109 16q86 0 142 -42.5t56 -107.5q0 -41 -28 -86.5t-62.5 -80t-71 -80t-48.5 -83.5l-26 -16l-7 3q14 56 56 118l74.5 113t32.5 90q0 46 -30.5 77t-85.5 31q-58 0 -120 -33zM95 42q0 22 15 37t37 15t37 -15t15 -37t-15 -37t-37 -15t-37 15t-15 37z" />
    <glyph glyph-name="at" unicode="@" horiz-adv-x="800" 
d="M321 286q0 -46 17.5 -68.5t41.5 -22.5q46 0 92 75t46 158q0 72 -60 72q-46 0 -91.5 -67.5t-45.5 -146.5zM640 73l14 -29q-132 -60 -224 -60q-166 0 -282.5 104.5t-116.5 254.5q0 112 56 200.5t144 133.5t188 45q148 0 249 -90t101 -225q0 -113 -59 -183.5t-139 -70.5
q-86 0 -95 74h-2q-15 -23 -49 -48.5t-74 -25.5q-41 0 -71.5 31.5t-30.5 101.5q0 104 64 180t139 76q31 0 53 -15.5t29 -41.5h2l10 43h72q-74 -277 -74 -303q0 -42 44 -42q52 0 97.5 60t45.5 163q0 108 -89.5 197t-222.5 89q-134 0 -219 -97t-85 -252q0 -133 87 -227t227 -94
q45 0 85.5 8t63 17z" />
    <glyph glyph-name="A" unicode="A" horiz-adv-x="759" 
d="M453 327l-112 274l-93 -274h205zM6 -3v30h12q41 0 62.5 22.5t45.5 85.5l229 602h19l257 -613q40 -97 101 -97h21v-30q-57 3 -136 3q-83 0 -138 -3v30h25q51 0 51 32q0 19 -14 50l-73 180h-233l-53 -158q-17 -49 -17 -72q0 -32 41 -32h22v-30q-52 3 -123 3q-63 0 -99 -3z
" />
    <glyph glyph-name="B" unicode="B" horiz-adv-x="630" 
d="M38 -3v30h18q36 0 51 17.5t15 64.5v488q0 47 -15 64.5t-51 17.5h-18v30q105 -3 128 -3q19 0 71.5 1.5t78.5 1.5q210 0 210 -163q0 -60 -30.5 -98.5t-93.5 -70.5v-2q71 -11 118 -59t47 -124q0 -93 -81 -152q-59 -43 -175 -43q-24 0 -72.5 1.5t-72.5 1.5q-23 0 -128 -3z
M210 346v-221q0 -44 20.5 -69t80.5 -25q79 0 123.5 34.5t44.5 97.5q0 100 -77 152q-54 35 -137 35q-39 0 -55 -4zM210 626v-233q32 -5 56 -5q184 0 184 119q0 86 -49 127t-119 41q-47 0 -59.5 -10.5t-12.5 -38.5z" />
    <glyph glyph-name="C" unicode="C" horiz-adv-x="759" 
d="M712 666l-4 -136h-16q-11 23 -19 36.5t-30 38t-47.5 38.5t-69 25.5t-97.5 11.5q-72 0 -126.5 -31t-84 -81.5t-43.5 -106.5t-14 -115q0 -84 27.5 -149.5t70.5 -100.5t88 -52.5t87 -17.5q55 0 101 13.5t80 40t52 45t43 49.5h7v-76q-121 -114 -275 -114q-169 0 -275 96.5
t-106 247.5q0 99 42.5 187.5t129.5 147.5t200 59q95 0 229 -42q42 -13 50 -14z" />
    <glyph glyph-name="D" unicode="D" horiz-adv-x="833" 
d="M38 -3v30h18q36 0 51 17.5t15 64.5v488q0 47 -15 64.5t-51 17.5h-18v30q105 -3 128 -3q40 0 120.5 1.5t120.5 1.5q77 0 141 -24t104.5 -61.5t68.5 -85t39.5 -92.5t11.5 -86q0 -47 -12 -94t-42 -96.5t-74 -87t-115 -61.5t-159 -24q-29 0 -98 1.5t-106 1.5q-23 0 -128 -3z
M210 667v-541q0 -57 29 -74t117 -17q69 0 124.5 16t100.5 49.5t70 93t25 140.5q0 46 -11 91.5t-37 91t-64 80.5t-97 56.5t-130 21.5q-41 0 -127 -8z" />
    <glyph glyph-name="E" unicode="E" horiz-adv-x="630" 
d="M38 -3v30h18q36 0 51 17.5t15 64.5v488q0 47 -15 64.5t-51 17.5h-18v30q96 -3 246 -3q25 0 235 3q4 -112 9 -170h-28q-3 21 -4.5 30t-7 26.5t-13 25.5t-22 19.5t-33.5 17t-48 9.5t-66 4h-96v-283h87q60 0 87.5 9t33.5 23t7 48h28q-2 -46 -2 -98q0 -51 2 -91h-28
q-3 30 -8 42t-30.5 20.5t-80.5 8.5h-96v-240q0 -44 18.5 -59.5t67.5 -15.5h27q125 0 170.5 29.5t57.5 113.5h28l-20 -181q-180 3 -275 3q-150 0 -246 -3z" />
    <glyph glyph-name="F" unicode="F" horiz-adv-x="537" 
d="M38 -3v30h18q36 0 51 17.5t15 64.5v488q0 47 -15 64.5t-51 17.5h-18v30q87 -3 243 -3q25 0 235 3q1 -71 7 -165h-28q-4 36 -9 53.5t-22.5 37.5t-54 28t-96.5 8h-103v-283h87q60 0 87.5 8.5t33.5 21.5t7 44h28q-2 -34 -2 -92q0 -35 2 -107h-28q-2 30 -4.5 42t-14 25
t-35 16.5t-65.5 3.5h-96v-241q0 -47 15 -64.5t51 -17.5h18v-30q-126 3 -128 3q-23 0 -128 -3z" />
    <glyph glyph-name="G" unicode="G" horiz-adv-x="833" 
d="M736 669v-136h-28q-11 74 -83.5 110.5t-163.5 36.5q-131 0 -215.5 -83t-84.5 -229q0 -138 91.5 -242t226.5 -104q53 0 85 8.5t86 32.5v167q0 26 -11.5 39.5t-46.5 13.5h-14v30q99 -3 115 -3q1 0 115 3v-30h-22q-48 0 -48 -50v-200q-161 -49 -277 -49q-86 0 -156.5 23.5
t-114.5 61t-74 86.5t-42.5 96.5t-12.5 93.5q0 164 112.5 270.5t297.5 106.5q106 0 265 -53z" />
    <glyph glyph-name="H" unicode="H" horiz-adv-x="833" 
d="M38 -3v30h18q36 0 51 17.5t15 64.5v488q0 47 -15 64.5t-51 17.5h-18v30q105 -3 128 -3q20 0 41.5 0.5t47.5 1.5t41 1v-30h-29q-33 0 -45 -19.5t-12 -86.5v-185h413v185q0 67 -12 86.5t-45 19.5h-29v30q15 0 41 -1t47.5 -1.5t41.5 -0.5q23 0 128 3v-30h-18
q-36 0 -51 -17.5t-15 -64.5v-488q0 -47 15 -64.5t51 -17.5h18v-30q-105 3 -128 3q-20 0 -41.5 -0.5t-47.5 -1.5t-41 -1v30h29q33 0 45 19.5t12 86.5v213h-413v-213q0 -67 12 -86.5t45 -19.5h29v-30q-15 0 -41 1t-47.5 1.5t-41.5 0.5q-23 0 -128 -3z" />
    <glyph glyph-name="I" unicode="I" horiz-adv-x="332" 
d="M38 -3v30h18q36 0 51 17.5t15 64.5v488q0 47 -15 64.5t-51 17.5h-18v30q105 -3 128 -3q2 0 128 3v-30h-18q-36 0 -51 -17.5t-15 -64.5v-488q0 -47 15 -64.5t51 -17.5h18v-30q-126 3 -128 3q-23 0 -128 -3z" />
    <glyph glyph-name="J" unicode="J" horiz-adv-x="389" 
d="M191 157v440q0 47 -15 64.5t-51 17.5h-18v30q105 -3 128 -3q2 0 128 3v-30h-18q-36 0 -51 -17.5t-15 -64.5v-362q0 -68 -21 -120t-52.5 -78.5t-61 -39.5t-53.5 -13q-40 0 -86 12l-4 109h30q1 -36 20 -59.5t54 -23.5q86 0 86 135z" />
    <glyph glyph-name="K" unicode="K" horiz-adv-x="722" 
d="M38 -3v30h18q36 0 51 17.5t15 64.5v488q0 47 -15 64.5t-51 17.5h-18v30q105 -3 128 -3q20 0 41.5 0.5t47.5 1.5t41 1v-30h-29q-33 0 -45 -19.5t-12 -86.5v-235l219 244q48 53 48 71q0 26 -33 26h-18v30q111 -3 118 -3q18 0 37.5 0.5t44 1.5t37.5 1v-30h-18
q-37 0 -59 -12.5t-66 -58.5l-193 -203l258 -302q40 -47 66.5 -61.5t59.5 -14.5h15v-30q-96 3 -97 3t-97 -3q-4 25 -15 44.5t-50 64.5l-205 235l-52 -55v-153q0 -67 12 -86.5t45 -19.5h29v-30q-15 0 -41 1t-47.5 1.5t-41.5 0.5q-23 0 -128 -3z" />
    <glyph glyph-name="L" unicode="L" horiz-adv-x="630" 
d="M46 -3v30h18q36 0 51 17.5t15 64.5v488q0 47 -15 64.5t-51 17.5h-18v30q105 -3 128 -3q26 0 75.5 1.5t57.5 1.5v-30h-23q-36 0 -51 -17.5t-15 -64.5v-465q0 -41 9 -60.5t39 -30t91 -10.5q63 0 98.5 5.5t57 24t30 42.5t15.5 71h31l-6 -177q-264 3 -289 3q-143 0 -248 -3z
" />
    <glyph glyph-name="M" unicode="M" horiz-adv-x="944" 
d="M32 -3v30h18q38 0 52.5 29t16.5 118q1 24 5.5 181t4.5 242q0 49 -16 65.5t-57 16.5h-18v30q6 0 37 -1.5t49 -1.5q44 0 80 3l275 -587l243 587q11 0 30 -1t34 -1.5t28 -0.5t28.5 0.5t34.5 1.5t29 1v-30h-13q-39 0 -58 -16.5t-19 -65.5q0 -23 1 -98.5l2.5 -190t2.5 -164.5
q1 -75 13.5 -96t56.5 -21h20v-30q-99 3 -128 3q-28 0 -130 -3v30h15q42 0 54.5 20t12.5 86v504h-2l-268 -649h-22l-275 591h-2v-410q0 -85 12 -113.5t52 -28.5h14v-30q-75 3 -106 3q-17 0 -107 -3z" />
    <glyph glyph-name="N" unicode="N" horiz-adv-x="815" 
d="M37 -3v30h16q39 0 51 23.5t14 103.5q6 198 6 438q0 52 -16 69.5t-56 17.5h-28v30q81 -3 88 -3q4 0 79 3l471 -579h2l-6 410q-1 85 -15.5 112t-55.5 27h-12v30q93 -3 108 -3l108 3v-30h-16q-28 0 -44.5 -21t-18.5 -87l-18 -583h-30l-496 608h-2q0 -232 6 -464
q1 -61 15 -83t50 -22h20v-30q-99 3 -110 3q-17 0 -110 -3z" />
    <glyph glyph-name="O" unicode="O" horiz-adv-x="870" 
d="M61 345q0 163 111.5 270t263.5 107q151 0 262 -107.5t111 -261.5q0 -67 -25.5 -132t-72 -118.5t-119 -86t-159.5 -32.5q-160 0 -266 105t-106 256zM709 342q0 83 -31.5 159t-96.5 127.5t-148 51.5q-117 0 -194.5 -78t-77.5 -240q0 -61 19.5 -121.5t54.5 -109t88.5 -79
t115.5 -30.5q134 0 202 87.5t68 232.5z" />
    <glyph glyph-name="P" unicode="P" horiz-adv-x="574" 
d="M38 -3v30h18q36 0 51 17.5t15 64.5v488q0 47 -15 64.5t-51 17.5h-18v30q105 -3 128 -3q27 0 81.5 1.5t81.5 1.5q57 0 100 -18t66 -47.5t34 -60.5t11 -63q0 -36 -12 -68t-37.5 -60.5t-74 -45.5t-114.5 -17q-30 0 -92 6v-202q0 -67 12 -86.5t45 -19.5h29v-30q-15 0 -41 1
t-47.5 1.5t-41.5 0.5q-23 0 -128 -3zM210 675v-284q49 -24 103 -24q68 0 99.5 40.5t31.5 93.5q0 87 -45 132.5t-126 45.5q-29 0 -63 -4z" />
    <glyph glyph-name="Q" unicode="Q" horiz-adv-x="870" 
d="M778 -203v-26q-58 0 -112.5 10.5t-108 33t-93.5 66t-56 103.5q-150 9 -248.5 112.5t-98.5 248.5q0 163 111.5 270t263.5 107q151 0 262 -107.5t111 -261.5q0 -124 -80 -229t-217 -132q15 -59 58.5 -102.5t95.5 -65t112 -27.5zM709 342q0 83 -31.5 159t-96.5 127.5
t-148 51.5q-117 0 -194.5 -78t-77.5 -240q0 -61 19.5 -121.5t54.5 -109t88.5 -79t115.5 -30.5q134 0 202 87.5t68 232.5z" />
    <glyph glyph-name="R" unicode="R" horiz-adv-x="685" 
d="M38 -3v30h18q36 0 51 17.5t15 64.5v488q0 47 -15 64.5t-51 17.5h-18v30q105 -3 128 -3q36 0 88 1.5t71 1.5q50 0 89.5 -15t61 -36.5t35.5 -48.5t18.5 -47.5t4.5 -37.5q0 -142 -142 -187l134 -222q40 -66 64.5 -81.5t87.5 -19.5v-21q-10 0 -28 -0.5t-28 -0.5
q-71 0 -107.5 18t-74.5 80l-117 191q-17 27 -35 33t-78 8v-189q0 -67 12 -86.5t45 -19.5h29v-30q-15 0 -41 1t-47.5 1.5t-41.5 0.5q-23 0 -128 -3zM210 667v-300q20 -7 68 -7q73 0 118.5 35.5t45.5 109.5q0 20 -7.5 45t-24.5 54t-52.5 48t-84.5 19q-23 0 -63 -4z" />
    <glyph glyph-name="S" unicode="S" horiz-adv-x="556" 
d="M471 695v-168h-34q0 15 -2 29t-11.5 39.5t-25 43t-47 31.5t-74.5 14q-61 0 -98.5 -34t-37.5 -84q0 -44 26 -76.5t87 -60.5l92 -42q149 -68 149 -187q0 -97 -64 -156.5t-185 -59.5q-100 0 -179 25l-4 164h30q6 -68 55.5 -111.5t114.5 -43.5q67 0 113.5 37.5t46.5 98.5
q0 31 -10.5 55.5t-32.5 42.5t-38 27.5t-44 23.5l-108 51q-129 61 -129 172q0 80 62.5 138t160.5 58q47 0 187 -27z" />
    <glyph glyph-name="T" unicode="T" horiz-adv-x="668" 
d="M203 -3v30h23q41 0 52.5 17t11.5 78v545h-114q-39 0 -64 -10t-37.5 -31.5t-17 -43t-7.5 -55.5h-34v182q90 -3 318 -3q216 0 318 3v-182h-34q-3 34 -7.5 55.5t-17 43t-37.5 31.5t-64 10h-114v-545q0 -61 11.5 -78t52.5 -17h23v-30q-114 3 -131 3t-131 -3z" />
    <glyph glyph-name="U" unicode="U" horiz-adv-x="778" 
d="M276 709v-30h-19q-32 -2 -46.5 -21t-15.5 -78q0 -35 -2 -145.5t-2 -170.5q0 -61 9.5 -96.5t31.5 -65.5q55 -80 166 -80q61 0 113.5 28t73.5 58q48 67 48 178v106q0 93 -6.5 168.5t-13.5 91.5q-8 17 -17.5 22t-29.5 5h-21v30q84 -3 105 -3q16 0 34 0.5t39.5 1.5t33.5 1
v-30h-15q-31 0 -46 -21.5t-15 -87.5v-256q0 -161 -78 -248q-32 -35 -91 -58.5t-120 -23.5q-106 0 -194 66q-95 70 -95 237v315q0 45 -16.5 61t-47.5 16h-18v30q123 -3 128 -3q1 0 127 3z" />
    <glyph glyph-name="V" unicode="V" horiz-adv-x="778" 
d="M1 679v30q120 -3 137 -3q13 0 136 3v-30h-14q-60 0 -60 -41q0 -22 21 -74l185 -456l197 465q21 51 21 77q0 29 -40 29h-19v30q93 -3 106 -3q1 0 106 3v-30h-19q-30 0 -51 -18.5t-46 -75.5l-259 -601h-38l-255 614q-20 47 -38 64t-51 17h-19z" />
    <glyph glyph-name="W" unicode="W" horiz-adv-x="1037" 
d="M-2 679v30q114 -3 130 -3q1 0 130 3v-30h-18q-47 0 -47 -38q0 -8 13 -51l149 -451h2l169 583h34l182 -578h2l127 406q20 60 20 88q0 23 -11 32t-35 9h-23v30q90 -3 109 -3q3 0 108 3v-30h-18q-31 0 -49.5 -14.5t-30.5 -53.5l-200 -627h-34l-182 580h-2l-171 -580h-34
l-214 624q-24 71 -86 71h-20z" />
    <glyph glyph-name="X" unicode="X" horiz-adv-x="815" 
d="M20 -3v30h14q42 0 70.5 18t66.5 65l188 234l-205 268q-30 39 -56.5 53t-59.5 14h-18v30q129 -3 147 -3q12 0 147 3v-30h-27q-35 0 -35 -31q0 -19 15 -38l157 -207l141 177q41 54 41 71q0 28 -34 28h-18v30q14 0 37.5 -1t43 -1.5t36.5 -0.5l117 3v-30h-17q-42 0 -68 -15
t-66 -64l-188 -229l226 -293q23 -30 44.5 -40.5t52.5 -10.5h23v-30q-81 3 -157 3q-22 0 -133 -3v30h22q42 0 42 28q0 14 -23 44l-162 210l-131 -167q-48 -60 -48 -89q0 -26 35 -26h19v-30q-13 0 -37.5 1t-44 1.5t-37.5 0.5t-120 -3z" />
    <glyph glyph-name="Y" unicode="Y" horiz-adv-x="685" 
d="M223 -3v30h24q36 0 48.5 15.5t12.5 55.5v158l-192 344q-29 52 -46.5 65.5t-54.5 13.5h-9v30q15 0 40.5 -1t46.5 -1.5t39 -0.5q1 0 127 3v-30h-18q-37 0 -37 -32q0 -19 22 -59l148 -267l138 264q27 51 27 71q0 23 -39 23h-19v30q16 0 49 -1.5t50 -1.5q3 0 99 3v-30h-25
q-30 0 -43.5 -12.5t-37.5 -58.5l-177 -331v-179q0 -42 14.5 -56.5t46.5 -14.5h20v-30q-126 3 -127 3q-16 0 -127 -3z" />
    <glyph glyph-name="Z" unicode="Z" horiz-adv-x="667" 
d="M51 545v164q294 -3 295 -3t295 3v-15l-491 -655h105q95 0 153.5 4t97 11t57.5 24t26 36t10 53h22v-170l-297 3q-1 0 -298 -3v15l483 655h-228q-117 0 -159.5 -29.5t-42.5 -92.5h-28z" />
    <glyph glyph-name="bracketleft" unicode="[" horiz-adv-x="407" 
d="M114 -233v970h216v-42h-132v-886h132v-42h-216z" />
    <glyph glyph-name="backslash" unicode="\" horiz-adv-x="370" 
d="M60 722l314 -738h-64l-314 738h64z" />
    <glyph glyph-name="bracketright" unicode="]" horiz-adv-x="407" 
d="M209 -191v886h-132v42h216v-970h-216v42h132z" />
    <glyph glyph-name="asciicircum" unicode="^" horiz-adv-x="600" 
d="M91 341l183 365h52l183 -365h-64l-145 289l-145 -289h-64z" />
    <glyph glyph-name="underscore" unicode="_" horiz-adv-x="500" 
d="M0 -125v50h500v-50h-500z" />
    <glyph glyph-name="grave" unicode="`" 
d="M205 542l-6 -12q-60 2 -105.5 37.5t-61.5 78.5l88 6q4 -26 28.5 -57.5t56.5 -52.5z" />
    <glyph glyph-name="a" unicode="a" horiz-adv-x="463" 
d="M298 264v37q0 46 -21 80.5t-63 34.5q-22 0 -49 -18t-27 -38q0 -15 14 -45l-64 -31q-18 38 -18 53q0 23 16 41t51 39q61 37 94 37q44 0 74.5 -14t44 -36.5t19 -42.5t5.5 -40v-203q0 -38 6 -51t19 -13q15 0 45 14v-27l-97 -46q-11 -5 -19 -5q-16 0 -25 57
q-48 -35 -76.5 -46t-61.5 -11q-52 0 -82.5 32.5t-30.5 75.5t24.5 66t80.5 45zM298 133v97l-104 -43q-66 -26 -66 -72q0 -24 21.5 -48.5t58.5 -24.5q36 0 93 43q-3 17 -3 48z" />
    <glyph glyph-name="b" unicode="b" horiz-adv-x="556" 
d="M81 124v521q0 50 -37 50q-13 0 -42 -11v34q73 29 148 72h10q-3 -34 -3 -190v-203q97 57 159 57q84 0 137 -67.5t53 -159.5q0 -101 -71 -169t-175 -68q-70 0 -186 30q7 54 7 104zM157 359v-304q72 -35 122 -35q66 0 108.5 53t42.5 133q0 31 -9 62.5t-27.5 61.5t-51.5 49
t-76 19q-45 0 -109 -39z" />
    <glyph glyph-name="c" unicode="c" horiz-adv-x="463" 
d="M433 80l3 -27q-87 -63 -171 -63q-92 0 -158.5 66t-66.5 162q0 40 16 80.5t44.5 76t75 57.5t102.5 22q71 0 137 -29l6 -94l-8 -2q-26 41 -68 66t-86 25q-64 0 -103.5 -46.5t-39.5 -110.5q0 -90 53.5 -157.5t129.5 -67.5q63 0 134 42z" />
    <glyph glyph-name="d" unicode="d" horiz-adv-x="556" 
d="M550 75v-30q-87 -37 -136 -61q-16 18 -21 70q-76 -64 -158 -64q-77 0 -136 57.5t-59 161.5q0 100 67 172.5t163 72.5q57 0 123 -29v220q0 50 -37 50q-13 0 -42 -11v34q73 29 148 72h10q-3 -35 -3 -190v-457q0 -46 9 -63.5t27 -17.5q24 0 45 13zM393 88v277
q-65 55 -126 55q-70 0 -110.5 -49.5t-40.5 -121.5q0 -78 39 -142.5t112 -64.5q68 0 126 46z" />
    <glyph glyph-name="e" unicode="e" horiz-adv-x="481" 
d="M442 73v-30q-85 -53 -169 -53q-111 0 -172 72.5t-61 163.5q0 88 65 158t150 70q91 0 142.5 -51t51.5 -134v-10h-329q3 -102 48.5 -164.5t133.5 -62.5q82 0 140 41zM120 293h249q0 31 -10 55t-24 37t-32 21.5t-31.5 11t-24.5 2.5q-42 0 -73 -25t-42.5 -52.5t-11.5 -49.5z
" />
    <glyph glyph-name="f" unicode="f" horiz-adv-x="333" 
d="M40 -3v30h15q39 0 49 15t10 73v287h-94l8 42h86v133q0 84 51.5 145.5t157.5 61.5q30 0 80 -9v-123h-22q-4 34 -27 64t-72 30q-45 0 -68.5 -33.5t-23.5 -82.5v-186h154l-21 -42h-133v-287q0 -58 10 -73t49 -15h15v-30q-90 3 -107 3q-24 0 -117 -3z" />
    <glyph glyph-name="g" unicode="g" horiz-adv-x="481" 
d="M482 436l-29 -42h-86q12 -15 17 -22.5t12 -27.5t7 -43q0 -69 -52.5 -108t-107.5 -39q-21 0 -42 3q-60 -39 -60 -57q0 -19 25.5 -25t79.5 -9q53 -3 88 -9.5t65 -21t44 -41t14 -66.5q0 -72 -62.5 -110t-149.5 -38q-32 0 -63.5 5.5t-65.5 18t-55 39t-21 62.5q0 44 29.5 70.5
t71.5 34.5v2q-68 13 -68 62q0 22 18.5 41t65.5 49l8 5q-46 19 -73.5 54.5t-27.5 76.5q0 67 49 110.5t120 43.5q46 0 86 -18h163zM96 -94q0 -39 38 -65.5t119 -26.5q63 0 105.5 23t42.5 69q0 88 -162 88q-143 0 -143 -88zM140 315q0 -51 25.5 -91t70.5 -40q46 0 68.5 29
t22.5 76q0 68 -28 101.5t-70 33.5q-36 0 -62.5 -31.5t-26.5 -77.5z" />
    <glyph glyph-name="h" unicode="h" horiz-adv-x="574" 
d="M22 -3v30h16q29 0 46 17.5t17 65.5v535q0 50 -37 50q-13 0 -42 -11v34q73 29 148 72h10q-3 -34 -3 -190v-221q2 2 13 10t14.5 11t14 10l15 10t14.5 9t16 8.5l15 6.5t16.5 5.5t16 3t17.5 1.5q73 0 114 -57q18 -25 24 -55t6 -82v-159q0 -47 10.5 -60t45.5 -14h17v-30
q-90 3 -120 3q-25 0 -100 -3v30h18q32 2 42.5 18t10.5 69v154q0 62 -16 88q-26 42 -80 42q-21 0 -47 -11.5t-36.5 -18t-40.5 -27.5v-250q0 -39 10.5 -51t43.5 -13h14v-30q-75 3 -111 3q-31 0 -112 -3z" />
    <glyph glyph-name="i" unicode="i" 
d="M22 -3v30h20q30 0 44.5 16.5t14.5 66.5v202q0 51 -31 51q-19 0 -43 -11v30q32 12 75.5 34.5t64.5 37.5h10v-344q0 -50 14.5 -66.5t44.5 -16.5h20v-30q-114 3 -117 3t-117 -3zM89 604q0 21 14.5 35.5t35.5 14.5t35.5 -14.5t14.5 -35.5t-14.5 -35.5t-35.5 -14.5t-35.5 14.5
t-14.5 35.5z" />
    <glyph glyph-name="j" unicode="j" 
d="M-27 -215v64q37 -27 63 -27q34 0 49.5 25.5t15.5 90.5v374q0 51 -31 51q-19 0 -43 -11v30q32 12 75.5 34.5t64.5 37.5h10v-411q0 -99 -20 -150q-23 -57 -65.5 -85t-84.5 -28q-16 0 -34 5zM89 604q0 21 14.5 35.5t35.5 14.5t35.5 -14.5t14.5 -35.5t-14.5 -35.5
t-35.5 -14.5t-35.5 14.5t-14.5 35.5z" />
    <glyph glyph-name="k" unicode="k" horiz-adv-x="519" 
d="M22 -3v30h15q40 0 52 12.5t12 51.5v554q0 50 -37 50q-13 0 -42 -11v34q73 29 148 72h10q-3 -34 -3 -190v-352l141 122q19 17 19 28q0 19 -34 19v30q66 -3 84 -3q20 0 98 3v-30q-36 0 -61.5 -12t-82.5 -59l-75 -62l145 -183q28 -35 51.5 -52t36.5 -19.5t35 -2.5v-30
q-69 3 -72 3q-11 0 -23.5 -0.5t-28 -1.5t-24.5 -1q-10 27 -32 56l-143 182l-34 -25v-127q0 -33 10 -44.5t38 -11.5h22v-30q-90 3 -109 3q-20 0 -116 -3z" />
    <glyph glyph-name="l" unicode="l" 
d="M22 684v34q73 29 148 72h10q-3 -34 -3 -190v-490q0 -50 14.5 -66.5t44.5 -16.5h20v-30q-114 3 -117 3t-117 -3v30h20q30 0 44.5 16.5t14.5 66.5v535q0 50 -37 50q-13 0 -42 -11z" />
    <glyph glyph-name="m" unicode="m" horiz-adv-x="870" 
d="M24 -3v30h18q34 0 43.5 13t9.5 57v170q0 64 -8 84.5t-27 20.5q-14 0 -36 -11v30q67 22 131 63h10v-79l46.5 38t47 27t59.5 14q107 0 143 -86q88 86 172 86q76 0 111 -46q31 -42 31 -123v-197q0 -38 11 -49.5t43 -11.5h17v-30q-6 0 -45.5 1.5t-59.5 1.5t-60.5 -1.5
t-50.5 -1.5v30h10q38 0 48.5 16t10.5 62v187q0 106 -104 106q-12 0 -24 -3t-21 -6t-21 -10.5l-18 -11.5t-19.5 -14t-18.5 -13v-260q0 -32 11 -42.5t39 -10.5h21v-30q-11 0 -31.5 1t-37.5 1.5t-32 0.5q-16 0 -34.5 -0.5t-41 -1.5t-36.5 -1v30h9q33 0 45 10.5t12 42.5v210
q0 50 -28.5 79t-75.5 29q-12 0 -24 -3t-21 -6t-21 -10.5l-18 -11.5t-19.5 -14t-18.5 -13v-253q0 -36 13 -48t40 -12h19v-30q-13 0 -36 1t-41.5 1.5t-35.5 0.5q-10 0 -106 -3z" />
    <glyph glyph-name="n" unicode="n" horiz-adv-x="556" 
d="M24 -3v30h18q34 0 43.5 13t9.5 57v170q0 64 -8 84.5t-27 20.5q-14 0 -36 -11v30q67 22 131 63h10v-88q83 88 152 88q31 0 66.5 -18.5t55.5 -57.5q22 -41 22 -121v-181q0 -30 10 -39.5t46 -9.5h15v-30q-72 3 -103 3q-28 0 -109 -3v30h18q30 0 38.5 17t8.5 66v157
q0 43 -6.5 65.5t-26.5 41.5q-24 24 -69 24q-49 0 -112 -60v-258q0 -34 7.5 -43.5t36.5 -9.5h19v-30q-69 3 -100 3q-14 0 -110 -3z" />
    <glyph glyph-name="o" unicode="o" horiz-adv-x="537" 
d="M413 191q0 93 -44 161t-122 68q-50 0 -86.5 -46t-36.5 -126q0 -52 16.5 -101.5t54 -86t88.5 -36.5q68 0 99 45t31 122zM40 229q0 87 61 156t163 69q105 0 169 -70t64 -174q0 -91 -65 -155.5t-164 -64.5q-90 0 -159 65.5t-69 173.5z" />
    <glyph glyph-name="p" unicode="p" horiz-adv-x="574" 
d="M20 -220v30h13q34 0 47.5 14t13.5 48v440q0 51 -31 51q-19 0 -43 -11v30q32 12 75.5 34.5t64.5 37.5h10v-75q93 75 167 75q88 0 137.5 -65t49.5 -152q0 -97 -64 -172t-181 -75q-61 0 -109 24v-142q0 -38 12 -50t43 -12h17v-30q-96 3 -104 3q-16 0 -118 -3zM170 337v-263
q24 -18 35.5 -26t36 -16t54.5 -8q71 0 111.5 48.5t40.5 124.5q0 99 -46 148t-106 49q-25 0 -49 -9t-39 -19t-38 -29z" />
    <glyph glyph-name="q" unicode="q" horiz-adv-x="556" 
d="M311 -220v30h7q38 0 53 15t15 51v170q-90 -56 -159 -56q-89 0 -138 66.5t-49 146.5q0 40 15 82.5t43 81t74 63t101 24.5q45 0 121 -27l61 33h7v-584q0 -38 11.5 -52t45.5 -14h12v-30q-93 3 -103 3q-3 0 -117 -3zM386 84v292q-51 44 -113 44q-77 0 -117 -54.5t-40 -135.5
q0 -77 39.5 -132.5t117.5 -55.5q29 0 63 13t50 29z" />
    <glyph glyph-name="r" unicode="r" horiz-adv-x="370" 
d="M24 -3v30h18q34 0 43.5 13t9.5 57v218q0 48 -32 48q-17 0 -39 -11v30q83 35 131 72h10v-104h2q50 104 127 104q28 0 60 -10v-94h-16q-9 36 -64 36q-38 0 -70.5 -31t-32.5 -96v-179q0 -34 7.5 -43.5t36.5 -9.5h19v-30q-69 3 -100 3q-14 0 -110 -3z" />
    <glyph glyph-name="s" unicode="s" horiz-adv-x="370" 
d="M319 434l4 -104h-20q-6 21 -11 32t-16.5 27t-31.5 23.5t-49 7.5q-43 0 -64 -21t-21 -46q0 -28 20.5 -46t56.5 -35l55 -25q18 -9 29 -15t29 -20.5t27 -36t9 -48.5q0 -58 -42.5 -97.5t-119.5 -39.5q-62 0 -140 26q3 29 3 59q0 31 -3 59h28q6 -53 35 -81.5t76 -28.5
q40 0 67.5 18t27.5 57q0 22 -12.5 39t-23.5 24t-35 19l-75 38q-80 40 -80 110q0 46 39 85.5t116 39.5q45 0 122 -20z" />
    <glyph glyph-name="t" unicode="t" horiz-adv-x="352" 
d="M2 402v10q103 63 162 175l14 3v-146h159l-14 -42h-145v-227q0 -50 20 -85.5t67 -35.5q37 0 79 26l15 -17l-82 -69q-9 -4 -24 -4q-10 0 -25.5 2.5t-42.5 14t-44 29.5q-39 42 -39 133v233h-100z" />
    <glyph glyph-name="u" unicode="u" horiz-adv-x="574" 
d="M97 189v135q0 48 -32 48q-26 0 -45 -11v30q60 18 141 63h12v-263q0 -70 23 -109.5t81 -39.5q42 0 124 57v225q0 48 -32 48q-16 0 -41 -11v30q58 19 137 63h12v-353q0 -30 6 -39t17 -9q6 0 54 17v-30l-130 -56l-7 3q-10 25 -12 76q-3 -2 -17 -10.5t-18.5 -11.5t-17.5 -11
t-19.5 -11t-18.5 -9t-20 -8.5l-19 -6t-20.5 -4.5t-19.5 -1q-71 0 -110 54q-18 25 -23 55.5t-5 89.5z" />
    <glyph glyph-name="v" unicode="v" horiz-adv-x="500" 
d="M12 417v30q75 -3 94 -3q18 0 96 3v-30h-11q-34 -2 -34 -25q0 -19 13 -45l102 -256l82 214q22 59 22 80q0 30 -44 32h-7v30q69 -3 71 -3q20 0 92 3v-30h-9q-23 0 -39 -14.5t-33 -56.5l-144 -356h-31q-6 23 -11 34l-136 331q-10 25 -16.5 35.5t-20 18.5t-36.5 8z" />
    <glyph glyph-name="w" unicode="w" horiz-adv-x="778" 
d="M266 97l127 350h25l136 -353l80 228q14 40 14 62q0 33 -46 33h-8v30q75 -3 76 -3q17 0 98 3v-30h-7q-57 0 -90 -90l-122 -337h-34q-6 22 -11 34l-119 309l-124 -343h-34q-6 22 -11 34l-125 325q-16 42 -29.5 52t-51.5 16v30q78 -3 101 -3q19 0 103 3v-30
q-16 -1 -26.5 -3.5t-18 -10t-7.5 -20.5q0 -10 10 -37z" />
    <glyph glyph-name="x" unicode="x" horiz-adv-x="537" 
d="M14 -3v30h20q33 0 50 10t47 47l98 121l-137 184q-22 28 -79 28h-8v30q69 -3 127 -3q31 0 109 3v-30h-9q-48 0 -48 -18q0 -9 22 -40l74 -98l68 89q20 26 20 44q0 17 -41 23v30q57 -3 87 -3q27 0 96 3v-30h-9q-39 0 -62.5 -13.5t-56.5 -58.5l-82 -110l123 -164
q22 -29 38 -36.5t51 -7.5h11v-30q-15 0 -34.5 0.5t-44.5 1.5t-39 1q-18 0 -99 -3v30h11q27 0 27 13q0 4 -28 44l-70 97l-77 -97q-22 -29 -22 -41q0 -16 30 -16h11v-30q-72 3 -90 3t-84 -3z" />
    <glyph glyph-name="y" unicode="y" horiz-adv-x="500" 
d="M52 -216v82h10q25 -22 57 -22q64 0 108 102l16 38l-159 374q-15 33 -29 46t-42 13h-6v30q90 -3 95 -3q17 0 49.5 1.5t49.5 1.5v-30h-10q-37 0 -37 -27q0 -18 12 -44l114 -264l83 244q13 42 13 55q0 36 -45 36h-7v30q7 0 36.5 -1.5t43.5 -1.5q13 0 28 0.5t33 1.5t28 1v-30
h-8q-33 0 -49 -20.5t-36 -76.5l-136 -375q-30 -84 -69.5 -124.5t-111.5 -40.5q-9 0 -31 4z" />
    <glyph glyph-name="z" unicode="z" horiz-adv-x="481" 
d="M34 10l294 403h-146q-47 0 -73 -23.5t-33 -82.5h-24q6 69 6 70q0 47 -2 70q93 -3 166 -3q71 0 224 3l-309 -416h157q66 0 92 23.5t37 82.5h24q-8 -69 -6 -140q-102 3 -222 3q-95 0 -185 -3v13z" />
    <glyph glyph-name="braceleft" unicode="{" horiz-adv-x="333" 
d="M287 737v-26q-45 -3 -62.5 -33t-17.5 -92v-189q0 -64 -16 -97t-65 -47v-2q49 -13 65 -46t16 -97v-190q0 -61 17.5 -91.5t62.5 -33.5v-26q-89 0 -126.5 31t-37.5 127v199q0 57 -15.5 85.5t-61.5 42.5q46 15 61.5 43.5t15.5 85.5v199q0 96 37.5 126.5t126.5 30.5z" />
    <glyph glyph-name="bar" unicode="|" horiz-adv-x="222" 
d="M81 -16v806h60v-806h-60z" />
    <glyph glyph-name="braceright" unicode="}" horiz-adv-x="333" 
d="M46 -233v26q45 3 62.5 33t17.5 92v189q0 64 16 97t65 47v2q-49 13 -65 46t-16 97v190q0 61 -17.5 91.5t-62.5 33.5v26q89 0 126.5 -31t37.5 -127v-199q0 -57 15.5 -85.5t61.5 -42.5q-46 -15 -61.5 -43.5t-15.5 -85.5v-199q0 -96 -37.5 -126.5t-126.5 -30.5z" />
    <glyph glyph-name="asciitilde" unicode="~" horiz-adv-x="600" 
d="M495 320l36 -41q-19 -28 -32.5 -44.5t-38.5 -30.5t-54 -14q-42 0 -102 33q-59 33 -115 33q-52 0 -84 -70l-36 41q44 89 125 89q39 0 111 -32q79 -34 102 -34q27 0 46.5 18t41.5 52z" />
    <glyph glyph-name="uni00A0" unicode="&#xa0;" 
 />
    <glyph glyph-name="exclamdown" unicode="&#xa1;" horiz-adv-x="315" 
d="M102 -220l39 455l18 22l8 -3l22 -313q4 -62 16.5 -80.5t42.5 -18.5q15 0 37 6l6 -25l-177 -43h-12zM207 450q0 -22 -15 -37t-37 -15t-37 15t-15 37t15 37t37 15t37 -15t15 -37z" />
    <glyph glyph-name="cent" unicode="&#xa2;" horiz-adv-x="556" 
d="M227 88l113 326q-20 6 -41 6q-64 0 -103.5 -46.5t-39.5 -110.5q0 -110 71 -175zM473 80l3 -27q-87 -63 -171 -63q-40 0 -72 13l-29 -84l-32 12l30 86q-55 28 -88.5 81.5t-33.5 119.5q0 40 16 80.5t44.5 76t75 57.5t102.5 22q11 0 35 -2l27 77l32 -12l-25 -71
q40 -8 68 -21l6 -94l-8 -2q-30 47 -81 73l-117 -337q38 -27 84 -27q63 0 134 42z" />
    <glyph glyph-name="sterling" unicode="&#xa3;" horiz-adv-x="556" 
d="M32 333v38h76q-29 73 -29 126q0 51 16.5 90.5t42 63t58.5 39t63 21t59 5.5q67 0 148 -26l18 -113h-14q-58 113 -157 113q-46 0 -78.5 -21.5t-46.5 -53.5t-19.5 -56t-5.5 -41q0 -69 38 -147h168v-38h-154q21 -53 21 -101q0 -35 -10 -67.5t-19 -49t-26 -42.5l-3 -2l2 -2
q37 13 80 13q39 0 105 -18q68 -18 94 -18q37 0 94 23l8 -13q-20 -19 -34.5 -30t-46 -23.5t-66.5 -12.5q-57 0 -120 23q-63 21 -99 21q-37 0 -130 -52l-26 38q68 42 96.5 77t28.5 88q0 62 -41 148h-91z" />
    <glyph glyph-name="currency" unicode="&#xa4;" horiz-adv-x="556" 
d="M28 145l55 55q-53 66 -53 153t53 153l-55 55l42 42l56 -55q65 53 152 53t152 -53l56 55l42 -42l-55 -55q53 -66 53 -153t-53 -153l55 -55l-42 -42l-56 56q-65 -54 -152 -54t-152 54l-56 -56zM94 353q0 -78 54 -133t130 -55t130 55t54 133t-54 133t-130 55t-130 -55
t-54 -133z" />
    <glyph glyph-name="yen" unicode="&#xa5;" horiz-adv-x="556" 
d="M250 197v61h-148v38h132l-140 304q-24 52 -38 65.5t-44 13.5h-7v30q12 0 33 -1t37.5 -1.5t31.5 -0.5q1 0 103 3v-30h-14q-30 0 -30 -32q0 -21 17 -59l119 -270l114 267q21 53 21 71q0 23 -31 23h-16v30q13 0 40 -1.5t41 -1.5q2 0 80 3v-30h-20q-24 0 -35 -13t-31 -58
l-137 -312h142v-38h-148v-61h148v-38h-148v-61q0 -42 12 -56.5t38 -14.5h16v-30q-102 3 -104 3q-13 0 -103 -3v30h19q30 0 40 15.5t10 55.5v61h-148v38h148z" />
    <glyph glyph-name="brokenbar" unicode="&#xa6;" horiz-adv-x="222" 
d="M81 -16v305h60v-305h-60zM81 485v305h60v-305h-60z" />
    <glyph glyph-name="section" unicode="&#xa7;" horiz-adv-x="556" 
d="M129 -180v90q36 -47 71.5 -69.5t82.5 -22.5q40 0 72 22.5t32 65.5q0 46 -50 91l-164 147q-71 64 -71 142q0 68 76 146q-36 35 -50 62t-14 70q0 58 45 108t132 50q63 0 139 -40v-83h-8q-71 85 -160 85q-45 0 -70.5 -25.5t-25.5 -61.5q0 -33 14.5 -53t53.5 -52l105 -86
q115 -94 115 -187q0 -47 -18 -82t-52 -72q30 -34 44.5 -62t14.5 -67q0 -58 -48.5 -107t-132.5 -49q-61 0 -133 40zM334 298l-132 113q-44 -38 -44 -81q0 -58 72 -123l134 -120q42 52 42 94q0 32 -15.5 57t-56.5 60z" />
    <glyph glyph-name="dieresis" unicode="&#xa8;" 
d="M186 608q0 20 14 34t34 14t34 -14t14 -34t-14 -34t-34 -14t-34 14t-14 34zM-4 608q0 20 14 34t34 14t34 -14t14 -34t-14 -34t-34 -14t-34 14t-14 34z" />
    <glyph glyph-name="copyright" unicode="&#xa9;" horiz-adv-x="800" 
d="M562 527v-77h-18q-4 41 -31.5 69.5t-86.5 28.5q-73 0 -113 -51t-40 -131q0 -89 41 -144t121 -55q88 0 126 94h18l-18 -78q-2 -11 -46.5 -22.5t-92.5 -11.5q-99 0 -162 52t-63 160q0 34 14.5 69t41.5 66t73 50.5t103 19.5q48 0 90.5 -12t42.5 -27zM31 353q0 153 108 261
t261 108t261 -108t108 -261t-108 -261t-261 -108t-261 108t-108 261zM91 353q0 -131 90.5 -224t218.5 -93t218.5 93t90.5 224t-90.5 224t-218.5 93t-218.5 -93t-90.5 -224z" />
    <glyph glyph-name="ordfeminine" unicode="&#xaa;" horiz-adv-x="301" 
d="M247 641v-122q0 -40 15 -40q8 0 30 9v-18l-64 -29q-8 -3 -13 -3q-11 0 -17 35q-52 -35 -92 -35q-37 0 -55.5 22t-18.5 44q0 27 16 41t53 27l94 34v23q0 28 -14 47.5t-42 19.5q-9 0 -31 -12q-19 -10 -19 -22q0 -5 9 -25l-46 -19q-11 24 -11 32q0 25 47 50q40 22 62 22
q55 0 76 -26t21 -55zM195 528v53l-69 -26q-42 -16 -42 -44q0 -15 13 -27t38 -12q23 0 62 26q-2 7 -2 30z" />
    <glyph glyph-name="guillemotleft" unicode="&#xab;" horiz-adv-x="389" 
d="M309 49l-132 197l155 173h38l-117 -173l94 -197h-38zM163 49l-132 197l155 173h38l-117 -173l94 -197h-38z" />
    <glyph glyph-name="logicalnot" unicode="&#xac;" horiz-adv-x="600" 
d="M488 108v213h-441v60h506v-273h-65z" />
    <glyph glyph-name="uni00AD" unicode="&#xad;" horiz-adv-x="352" 
d="M35 198l24 72h258l-24 -72h-258z" />
    <glyph glyph-name="registered" unicode="&#xae;" horiz-adv-x="800" 
d="M235 537v18h186q52 0 88.5 -25t36.5 -72q0 -40 -22.5 -69t-55.5 -41l44 -70q43 -68 58.5 -83.5t35.5 -15.5v-18h-63q-17 0 -40 29t-97 146h-54v-131q0 -14 9.5 -18.5t43.5 -7.5v-18h-170v18q34 3 43.5 7.5t9.5 18.5v306q0 14 -9.5 18.5t-43.5 7.5zM352 354h50
q39 0 59.5 26.5t20.5 73.5q0 43 -23.5 63t-59.5 20h-47v-183zM31 353q0 153 108 261t261 108t261 -108t108 -261t-108 -261t-261 -108t-261 108t-108 261zM91 353q0 -131 90.5 -224t218.5 -93t218.5 93t90.5 224t-90.5 224t-218.5 93t-218.5 -93t-90.5 -224z" />
    <glyph glyph-name="macron" unicode="&#xaf;" 
d="M3 560v60h272v-60h-272z" />
    <glyph glyph-name="degree" unicode="&#xb0;" horiz-adv-x="400" 
d="M58 574q0 58 42 100t100 42t100 -42t42 -100t-42 -100t-100 -42t-100 42t-42 100zM106 574q0 -39 27.5 -66.5t66.5 -27.5t66.5 27.5t27.5 66.5t-27.5 66.5t-66.5 27.5t-66.5 -27.5t-27.5 -66.5z" />
    <glyph glyph-name="plusminus" unicode="&#xb1;" horiz-adv-x="600" 
d="M270 98v174h-223v60h223v174h60v-174h223v-60h-223v-174h-60zM47 0v60h506v-60h-506z" />
    <glyph glyph-name="twosuperior" unicode="&#xb2;" horiz-adv-x="361" 
d="M324 345v-56h-292l-4 4q6 26 48 73l61 69q58 65 79 98.5t21 57.5q0 69 -84 69q-65 0 -106 -39h-7q4 28 7 76q59 19 119 19q77 0 112 -29.5t35 -67.5q0 -62 -83 -143l-133 -131h227z" />
    <glyph glyph-name="threesuperior" unicode="&#xb3;" horiz-adv-x="361" 
d="M36 296l-10 74l7 2q52 -55 118 -55q39 0 67.5 20t28.5 61q0 34 -27.5 64t-92.5 32l15 42h13q33 0 56 22.5t23 52.5q0 25 -21.5 44t-60.5 19q-61 0 -107 -44h-7l-3 66q69 20 133 20q65 0 99.5 -28.5t34.5 -66.5q0 -28 -17 -49t-33 -28.5t-39 -15.5v-2q48 -9 75 -41t27 -69
q0 -62 -51.5 -99.5t-119.5 -37.5q-67 0 -108 17z" />
    <glyph glyph-name="acute" unicode="&#xb4;" 
d="M79 530l-6 12q32 21 56.5 52.5t28.5 57.5l88 -6q-16 -43 -61.5 -78.5t-105.5 -37.5z" />
    <glyph glyph-name="mu" unicode="&#xb5;" horiz-adv-x="574" 
d="M97 170v154q0 48 -32 48q-26 0 -45 -11v30q60 18 141 63h12v-263q0 -70 23 -109.5t81 -39.5q42 0 124 57v225q0 48 -32 48q-16 0 -41 -11v30q58 19 137 63h12v-353q0 -30 6 -39t17 -9q6 0 54 17v-30l-130 -56l-7 3q-10 25 -12 76q-2 -1 -22 -13.5l-25 -15.5l-22.5 -13
t-26.5 -13t-23.5 -8.5t-27 -7.5t-24.5 -2q-54 0 -89 33q0 -32 9 -101t9 -87q0 -25 -12.5 -40t-31.5 -15t-31.5 15t-12.5 40q0 12 5.5 54t11 116t5.5 165z" />
    <glyph glyph-name="paragraph" unicode="&#xb6;" horiz-adv-x="600" 
d="M375 -204v880h-76v-880h-144v30h18q36 0 51 17.5t15 64.5v381q-92 0 -145 49.5t-53 156.5q0 116 51 163.5t159 47.5h268v-30h-18q-36 0 -51 -17.5t-15 -64.5v-686q0 -47 15 -64.5t51 -17.5h18v-30h-144zM239 323v345q-72 0 -99 -38t-27 -137q0 -78 37 -124t89 -46z" />
    <glyph glyph-name="periodcentered" unicode="&#xb7;" 
d="M87 315q0 22 15 37t37 15t37 -15t15 -37t-15 -37t-37 -15t-37 15t-15 37z" />
    <glyph glyph-name="cedilla" unicode="&#xb8;" 
d="M83 -108l47 108h34l-30 -70l2 -2q10 2 30 2q44 0 63 -22t19 -43q0 -35 -28.5 -60t-93.5 -25q-63 0 -103 22l12 32q56 -20 84 -20q57 0 57 44q0 20 -16 29t-37 9q-23 0 -40 -4z" />
    <glyph glyph-name="onesuperior" unicode="&#xb9;" horiz-adv-x="361" 
d="M100 287v26h9q30 0 40 9.5t10 36.5v288q0 20 -9.5 27.5t-31.5 7.5t-38 -6v30l125 10h22v-357q0 -28 9 -37t32 -9h13v-26q-40 2 -89 2q-52 0 -92 -2z" />
    <glyph glyph-name="ordmasculine" unicode="&#xba;" horiz-adv-x="361" 
d="M87 596q0 -49 27.5 -90.5t75.5 -41.5q84 0 84 98q0 48 -27.5 91t-76.5 43q-36 0 -59.5 -25.5t-23.5 -74.5zM27 584q0 55 44.5 96.5t108.5 41.5q63 0 108.5 -43t45.5 -106q0 -56 -43.5 -95.5t-110.5 -39.5q-61 0 -107 40t-46 106z" />
    <glyph glyph-name="guillemotright" unicode="&#xbb;" horiz-adv-x="389" 
d="M80 419l132 -197l-155 -173h-38l117 173l-94 197h38zM226 419l132 -197l-155 -173h-38l117 173l-94 197h38z" />
    <glyph glyph-name="onequarter" unicode="&#xbc;" horiz-adv-x="834" 
d="M630 161l2 178l-2 1q-15 -21 -63.5 -82.5t-72.5 -96.5h136zM629 0l1 119h-199l-4 13l246 316h27l-2 -287h55q-3 -9 -3 -19q0 -5 3 -23h-55l-1 -119h-68zM151 -16l445 738h48l-445 -738h-48zM100 287v26h9q30 0 40 9.5t10 36.5v288q0 20 -9.5 27.5t-31.5 7.5t-38 -6v30
l125 10h22v-357q0 -28 9 -37t32 -9h13v-26q-40 2 -89 2q-52 0 -92 -2z" />
    <glyph glyph-name="onehalf" unicode="&#xbd;" horiz-adv-x="834" 
d="M151 -16l445 738h48l-445 -738h-48zM100 287v26h9q30 0 40 9.5t10 36.5v288q0 20 -9.5 27.5t-31.5 7.5t-38 -6v30l125 10h22v-357q0 -28 9 -37t32 -9h13v-26q-40 2 -89 2q-52 0 -92 -2zM793 56v-56h-292l-4 4q6 26 48 73l61 69q58 65 79 98.5t21 57.5q0 69 -84 69
q-65 0 -106 -39h-7q4 28 7 76q59 19 119 19q77 0 112 -29.5t35 -67.5q0 -62 -83 -143l-133 -131h227z" />
    <glyph glyph-name="threequarters" unicode="&#xbe;" horiz-adv-x="834" 
d="M630 161l2 178l-2 1q-15 -21 -63.5 -82.5t-72.5 -96.5h136zM629 0l1 119h-199l-4 13l246 316h27l-2 -287h55q-3 -9 -3 -19q0 -5 3 -23h-55l-1 -119h-68zM151 -16l445 738h48l-445 -738h-48zM36 296l-10 74l7 2q52 -55 118 -55q39 0 67.5 20t28.5 61q0 34 -27.5 64
t-92.5 32l15 42h13q33 0 56 22.5t23 52.5q0 25 -21.5 44t-60.5 19q-61 0 -107 -44h-7l-3 66q69 20 133 20q65 0 99.5 -28.5t34.5 -66.5q0 -28 -17 -49t-33 -28.5t-39 -15.5v-2q48 -9 75 -41t27 -69q0 -62 -51.5 -99.5t-119.5 -37.5q-67 0 -108 17z" />
    <glyph glyph-name="questiondown" unicode="&#xbf;" horiz-adv-x="426" 
d="M371 -123l-9 -81q-46 -16 -109 -16q-86 0 -142 42.5t-56 107.5q0 41 28 86.5t62.5 80t71 80t48.5 83.5l26 16l7 -3q-14 -56 -56 -118l-74.5 -113t-32.5 -90q0 -46 30.5 -77t85.5 -31q58 0 120 33zM331 450q0 -22 -15 -37t-37 -15t-37 15t-15 37t15 37t37 15t37 -15
t15 -37z" />
    <glyph glyph-name="Agrave" unicode="&#xc0;" horiz-adv-x="759" 
d="M453 327l-112 274l-93 -274h205zM6 -3v30h12q41 0 62.5 22.5t45.5 85.5l229 602h19l257 -613q40 -97 101 -97h21v-30q-57 3 -136 3q-83 0 -138 -3v30h25q51 0 51 32q0 19 -14 50l-73 180h-233l-53 -158q-17 -49 -17 -72q0 -32 41 -32h22v-30q-52 3 -123 3q-63 0 -99 -3z
M426 774l-6 -12q-60 2 -105.5 37.5t-61.5 78.5l88 6q4 -26 28.5 -57.5t56.5 -52.5z" />
    <glyph glyph-name="Aacute" unicode="&#xc1;" horiz-adv-x="759" 
d="M453 327l-112 274l-93 -274h205zM6 -3v30h12q41 0 62.5 22.5t45.5 85.5l229 602h19l257 -613q40 -97 101 -97h21v-30q-57 3 -136 3q-83 0 -138 -3v30h25q51 0 51 32q0 19 -14 50l-73 180h-233l-53 -158q-17 -49 -17 -72q0 -32 41 -32h22v-30q-52 3 -123 3q-63 0 -99 -3z
M300 762l-6 12q32 21 56.5 52.5t28.5 57.5l88 -6q-16 -43 -61.5 -78.5t-105.5 -37.5z" />
    <glyph glyph-name="Acircumflex" unicode="&#xc2;" horiz-adv-x="759" 
d="M453 327l-112 274l-93 -274h205zM6 -3v30h12q41 0 62.5 22.5t45.5 85.5l229 602h19l257 -613q40 -97 101 -97h21v-30q-57 3 -136 3q-83 0 -138 -3v30h25q51 0 51 32q0 19 -14 50l-73 180h-233l-53 -158q-17 -49 -17 -72q0 -32 41 -32h22v-30q-52 3 -123 3q-63 0 -99 -3z
M327 904l55 8q34 -80 105 -135l-14 -15q-64 16 -113 65q-60 -51 -116 -65l-11 14q71 69 94 128z" />
    <glyph glyph-name="Atilde" unicode="&#xc3;" horiz-adv-x="759" 
d="M453 327l-112 274l-93 -274h205zM6 -3v30h12q41 0 62.5 22.5t45.5 85.5l229 602h19l257 -613q40 -97 101 -97h21v-30q-57 3 -136 3q-83 0 -138 -3v30h25q51 0 51 32q0 19 -14 50l-73 180h-233l-53 -158q-17 -49 -17 -72q0 -32 41 -32h22v-30q-52 3 -123 3q-63 0 -99 -3z
M499 867l22 -9q-14 -28 -23.5 -42.5t-26 -27t-36.5 -12.5q-39 0 -88 22q-52 23 -73 23q-30 0 -53 -39l-22 9q14 28 23.5 42.5t26 27t36.5 12.5q32 0 88 -22q56 -23 73 -23q30 0 53 39z" />
    <glyph glyph-name="Adieresis" unicode="&#xc4;" horiz-adv-x="759" 
d="M453 327l-112 274l-93 -274h205zM6 -3v30h12q41 0 62.5 22.5t45.5 85.5l229 602h19l257 -613q40 -97 101 -97h21v-30q-57 3 -136 3q-83 0 -138 -3v30h25q51 0 51 32q0 19 -14 50l-73 180h-233l-53 -158q-17 -49 -17 -72q0 -32 41 -32h22v-30q-52 3 -123 3q-63 0 -99 -3z
M407 840q0 20 14 34t34 14t34 -14t14 -34t-14 -34t-34 -14t-34 14t-14 34zM217 840q0 20 14 34t34 14t34 -14t14 -34t-14 -34t-34 -14t-34 14t-14 34z" />
    <glyph glyph-name="Aring" unicode="&#xc5;" horiz-adv-x="759" 
d="M453 327l-112 274l-93 -274h205zM6 -3v30h12q41 0 62.5 22.5t45.5 85.5l229 602h19l257 -613q40 -97 101 -97h21v-30q-57 3 -136 3q-83 0 -138 -3v30h25q51 0 51 32q0 19 -14 50l-73 180h-233l-53 -158q-17 -49 -17 -72q0 -32 41 -32h22v-30q-52 3 -123 3q-63 0 -99 -3z
M264 858q0 42 29.5 71.5t71.5 29.5t71.5 -29.5t29.5 -71.5t-29.5 -71.5t-71.5 -29.5t-71.5 29.5t-29.5 71.5zM302 858q0 -26 18.5 -44.5t44.5 -18.5t44.5 18.5t18.5 44.5t-18.5 44.5t-44.5 18.5t-44.5 -18.5t-18.5 -44.5z" />
    <glyph glyph-name="AE" unicode="&#xc6;" horiz-adv-x="1000" 
d="M8 -3v30h15q32 0 49 11.5t36 44.5l334 570q-14 26 -55 26h-18v30q165 -3 237 -3q73 0 283 3q4 -112 9 -170h-28q-3 21 -4.5 30t-7 26.5t-13 25.5t-22 19.5t-33.5 17t-48 9.5t-66 4h-96v-283h87q60 0 87.5 9t33.5 23t7 48h28q-2 -46 -2 -98q0 -51 2 -91h-28q-3 30 -8 42
t-30.5 20.5t-80.5 8.5h-96v-239q0 -45 18.5 -60.5t67.5 -15.5h27q125 0 170.5 29.5t57.5 113.5h28l-20 -181q-180 3 -275 3q-150 0 -246 -3v30h28q34 0 45 17t11 71v235h-174l-115 -203q-36 -66 -36 -87q0 -33 55 -33h32v-30q-93 3 -123 3t-123 -3zM492 388v265h-2
l-151 -265h153z" />
    <glyph glyph-name="Ccedilla" unicode="&#xc7;" horiz-adv-x="759" 
d="M717 174v-76q-121 -114 -275 -114h-11l-23 -54l2 -2q10 2 30 2q44 0 63 -22t19 -43q0 -35 -28.5 -60t-93.5 -25q-63 0 -103 22l12 32q56 -20 84 -20q57 0 57 44q0 20 -16 29t-37 9q-23 0 -40 -4l41 96q-152 11 -244.5 105t-92.5 235q0 99 42.5 187.5t129.5 147.5t200 59
q95 0 229 -42q42 -13 50 -14l-4 -136h-16q-11 23 -19 36.5t-30 38t-47.5 38.5t-69 25.5t-97.5 11.5q-72 0 -126.5 -31t-84 -81.5t-43.5 -106.5t-14 -115q0 -84 27.5 -149.5t70.5 -100.5t88 -52.5t87 -17.5q55 0 101 13.5t80 40t52 45t43 49.5h7z" />
    <glyph glyph-name="Egrave" unicode="&#xc8;" horiz-adv-x="630" 
d="M38 -3v30h18q36 0 51 17.5t15 64.5v488q0 47 -15 64.5t-51 17.5h-18v30q96 -3 246 -3q25 0 235 3q4 -112 9 -170h-28q-3 21 -4.5 30t-7 26.5t-13 25.5t-22 19.5t-33.5 17t-48 9.5t-66 4h-96v-283h87q60 0 87.5 9t33.5 23t7 48h28q-2 -46 -2 -98q0 -51 2 -91h-28
q-3 30 -8 42t-30.5 20.5t-80.5 8.5h-96v-240q0 -44 18.5 -59.5t67.5 -15.5h27q125 0 170.5 29.5t57.5 113.5h28l-20 -181q-180 3 -275 3q-150 0 -246 -3zM381 754l-6 -12q-60 2 -105.5 37.5t-61.5 78.5l88 6q4 -26 28.5 -57.5t56.5 -52.5z" />
    <glyph glyph-name="Eacute" unicode="&#xc9;" horiz-adv-x="630" 
d="M38 -3v30h18q36 0 51 17.5t15 64.5v488q0 47 -15 64.5t-51 17.5h-18v30q96 -3 246 -3q25 0 235 3q4 -112 9 -170h-28q-3 21 -4.5 30t-7 26.5t-13 25.5t-22 19.5t-33.5 17t-48 9.5t-66 4h-96v-283h87q60 0 87.5 9t33.5 23t7 48h28q-2 -46 -2 -98q0 -51 2 -91h-28
q-3 30 -8 42t-30.5 20.5t-80.5 8.5h-96v-240q0 -44 18.5 -59.5t67.5 -15.5h27q125 0 170.5 29.5t57.5 113.5h28l-20 -181q-180 3 -275 3q-150 0 -246 -3zM255 742l-6 12q32 21 56.5 52.5t28.5 57.5l88 -6q-16 -43 -61.5 -78.5t-105.5 -37.5z" />
    <glyph glyph-name="Ecircumflex" unicode="&#xca;" horiz-adv-x="630" 
d="M38 -3v30h18q36 0 51 17.5t15 64.5v488q0 47 -15 64.5t-51 17.5h-18v30q96 -3 246 -3q25 0 235 3q4 -112 9 -170h-28q-3 21 -4.5 30t-7 26.5t-13 25.5t-22 19.5t-33.5 17t-48 9.5t-66 4h-96v-283h87q60 0 87.5 9t33.5 23t7 48h28q-2 -46 -2 -98q0 -51 2 -91h-28
q-3 30 -8 42t-30.5 20.5t-80.5 8.5h-96v-240q0 -44 18.5 -59.5t67.5 -15.5h27q125 0 170.5 29.5t57.5 113.5h28l-20 -181q-180 3 -275 3q-150 0 -246 -3zM282 884l55 8q34 -80 105 -135l-14 -15q-64 16 -113 65q-60 -51 -116 -65l-11 14q71 69 94 128z" />
    <glyph glyph-name="Edieresis" unicode="&#xcb;" horiz-adv-x="630" 
d="M38 -3v30h18q36 0 51 17.5t15 64.5v488q0 47 -15 64.5t-51 17.5h-18v30q96 -3 246 -3q25 0 235 3q4 -112 9 -170h-28q-3 21 -4.5 30t-7 26.5t-13 25.5t-22 19.5t-33.5 17t-48 9.5t-66 4h-96v-283h87q60 0 87.5 9t33.5 23t7 48h28q-2 -46 -2 -98q0 -51 2 -91h-28
q-3 30 -8 42t-30.5 20.5t-80.5 8.5h-96v-240q0 -44 18.5 -59.5t67.5 -15.5h27q125 0 170.5 29.5t57.5 113.5h28l-20 -181q-180 3 -275 3q-150 0 -246 -3zM362 820q0 20 14 34t34 14t34 -14t14 -34t-14 -34t-34 -14t-34 14t-14 34zM172 820q0 20 14 34t34 14t34 -14t14 -34
t-14 -34t-34 -14t-34 14t-14 34z" />
    <glyph glyph-name="Igrave" unicode="&#xcc;" horiz-adv-x="332" 
d="M38 -3v30h18q36 0 51 17.5t15 64.5v488q0 47 -15 64.5t-51 17.5h-18v30q105 -3 128 -3q2 0 128 3v-30h-18q-36 0 -51 -17.5t-15 -64.5v-488q0 -47 15 -64.5t51 -17.5h18v-30q-126 3 -128 3q-23 0 -128 -3zM232 754l-6 -12q-60 2 -105.5 37.5t-61.5 78.5l88 6
q4 -26 28.5 -57.5t56.5 -52.5z" />
    <glyph glyph-name="Iacute" unicode="&#xcd;" horiz-adv-x="332" 
d="M38 -3v30h18q36 0 51 17.5t15 64.5v488q0 47 -15 64.5t-51 17.5h-18v30q105 -3 128 -3q2 0 128 3v-30h-18q-36 0 -51 -17.5t-15 -64.5v-488q0 -47 15 -64.5t51 -17.5h18v-30q-126 3 -128 3q-23 0 -128 -3zM106 742l-6 12q32 21 56.5 52.5t28.5 57.5l88 -6
q-16 -43 -61.5 -78.5t-105.5 -37.5z" />
    <glyph glyph-name="Icircumflex" unicode="&#xce;" horiz-adv-x="332" 
d="M38 -3v30h18q36 0 51 17.5t15 64.5v488q0 47 -15 64.5t-51 17.5h-18v30q105 -3 128 -3q2 0 128 3v-30h-18q-36 0 -51 -17.5t-15 -64.5v-488q0 -47 15 -64.5t51 -17.5h18v-30q-126 3 -128 3q-23 0 -128 -3zM133 884l55 8q34 -80 105 -135l-14 -15q-64 16 -113 65
q-60 -51 -116 -65l-11 14q71 69 94 128z" />
    <glyph glyph-name="Idieresis" unicode="&#xcf;" horiz-adv-x="332" 
d="M38 -3v30h18q36 0 51 17.5t15 64.5v488q0 47 -15 64.5t-51 17.5h-18v30q105 -3 128 -3q2 0 128 3v-30h-18q-36 0 -51 -17.5t-15 -64.5v-488q0 -47 15 -64.5t51 -17.5h18v-30q-126 3 -128 3q-23 0 -128 -3zM213 820q0 20 14 34t34 14t34 -14t14 -34t-14 -34t-34 -14
t-34 14t-14 34zM23 820q0 20 14 34t34 14t34 -14t14 -34t-14 -34t-34 -14t-34 14t-14 34z" />
    <glyph glyph-name="Eth" unicode="&#xd0;" horiz-adv-x="833" 
d="M122 388v209q0 47 -15 64.5t-51 17.5h-18v30q105 -3 128 -3q40 0 120.5 1.5t120.5 1.5q77 0 141 -24t104.5 -61.5t68.5 -85t39.5 -92.5t11.5 -86q0 -47 -12 -94t-42 -96.5t-74 -87t-115 -61.5t-159 -24q-29 0 -98 1.5t-106 1.5q-23 0 -128 -3v30h18q36 0 51 17.5t15 64.5
v241h-84v38h84zM210 667v-279h202v-38h-202v-224q0 -57 29 -74t117 -17q69 0 124.5 16t100.5 49.5t70 93t25 140.5q0 46 -11 91.5t-37 91t-64 80.5t-97 56.5t-130 21.5q-41 0 -127 -8z" />
    <glyph glyph-name="Ntilde" unicode="&#xd1;" horiz-adv-x="815" 
d="M37 -3v30h16q39 0 51 23.5t14 103.5q6 198 6 438q0 52 -16 69.5t-56 17.5h-28v30q81 -3 88 -3q4 0 79 3l471 -579h2l-6 410q-1 85 -15.5 112t-55.5 27h-12v30q93 -3 108 -3l108 3v-30h-16q-28 0 -44.5 -21t-18.5 -87l-18 -583h-30l-496 608h-2q0 -232 6 -464
q1 -61 15 -83t50 -22h20v-30q-99 3 -110 3q-17 0 -110 -3zM547 847l22 -9q-14 -28 -23.5 -42.5t-26 -27t-36.5 -12.5q-39 0 -88 22q-52 23 -73 23q-30 0 -53 -39l-22 9q14 28 23.5 42.5t26 27t36.5 12.5q32 0 88 -22q56 -23 73 -23q30 0 53 39z" />
    <glyph glyph-name="Ograve" unicode="&#xd2;" horiz-adv-x="870" 
d="M61 345q0 163 111.5 270t263.5 107q151 0 262 -107.5t111 -261.5q0 -67 -25.5 -132t-72 -118.5t-119 -86t-159.5 -32.5q-160 0 -266 105t-106 256zM709 342q0 83 -31.5 159t-96.5 127.5t-148 51.5q-117 0 -194.5 -78t-77.5 -240q0 -61 19.5 -121.5t54.5 -109t88.5 -79
t115.5 -30.5q134 0 202 87.5t68 232.5zM501 754l-6 -12q-60 2 -105.5 37.5t-61.5 78.5l88 6q4 -26 28.5 -57.5t56.5 -52.5z" />
    <glyph glyph-name="Oacute" unicode="&#xd3;" horiz-adv-x="870" 
d="M61 345q0 163 111.5 270t263.5 107q151 0 262 -107.5t111 -261.5q0 -67 -25.5 -132t-72 -118.5t-119 -86t-159.5 -32.5q-160 0 -266 105t-106 256zM709 342q0 83 -31.5 159t-96.5 127.5t-148 51.5q-117 0 -194.5 -78t-77.5 -240q0 -61 19.5 -121.5t54.5 -109t88.5 -79
t115.5 -30.5q134 0 202 87.5t68 232.5zM375 742l-6 12q32 21 56.5 52.5t28.5 57.5l88 -6q-16 -43 -61.5 -78.5t-105.5 -37.5z" />
    <glyph glyph-name="Ocircumflex" unicode="&#xd4;" horiz-adv-x="870" 
d="M61 345q0 163 111.5 270t263.5 107q151 0 262 -107.5t111 -261.5q0 -67 -25.5 -132t-72 -118.5t-119 -86t-159.5 -32.5q-160 0 -266 105t-106 256zM709 342q0 83 -31.5 159t-96.5 127.5t-148 51.5q-117 0 -194.5 -78t-77.5 -240q0 -61 19.5 -121.5t54.5 -109t88.5 -79
t115.5 -30.5q134 0 202 87.5t68 232.5zM402 884l55 8q34 -80 105 -135l-14 -15q-64 16 -113 65q-60 -51 -116 -65l-11 14q71 69 94 128z" />
    <glyph glyph-name="Otilde" unicode="&#xd5;" horiz-adv-x="870" 
d="M61 345q0 163 111.5 270t263.5 107q151 0 262 -107.5t111 -261.5q0 -67 -25.5 -132t-72 -118.5t-119 -86t-159.5 -32.5q-160 0 -266 105t-106 256zM709 342q0 83 -31.5 159t-96.5 127.5t-148 51.5q-117 0 -194.5 -78t-77.5 -240q0 -61 19.5 -121.5t54.5 -109t88.5 -79
t115.5 -30.5q134 0 202 87.5t68 232.5zM574 847l22 -9q-14 -28 -23.5 -42.5t-26 -27t-36.5 -12.5q-38 0 -88 22q-52 23 -73 23q-30 0 -53 -39l-22 9q14 28 23.5 42.5t26 27t36.5 12.5q32 0 88 -22q56 -23 73 -23q30 0 53 39z" />
    <glyph glyph-name="Odieresis" unicode="&#xd6;" horiz-adv-x="870" 
d="M61 345q0 163 111.5 270t263.5 107q151 0 262 -107.5t111 -261.5q0 -67 -25.5 -132t-72 -118.5t-119 -86t-159.5 -32.5q-160 0 -266 105t-106 256zM709 342q0 83 -31.5 159t-96.5 127.5t-148 51.5q-117 0 -194.5 -78t-77.5 -240q0 -61 19.5 -121.5t54.5 -109t88.5 -79
t115.5 -30.5q134 0 202 87.5t68 232.5zM482 820q0 20 14 34t34 14t34 -14t14 -34t-14 -34t-34 -14t-34 14t-14 34zM292 820q0 20 14 34t34 14t34 -14t14 -34t-14 -34t-34 -14t-34 14t-14 34z" />
    <glyph glyph-name="multiply" unicode="&#xd7;" horiz-adv-x="600" 
d="M258 253l-185 185l42 42l184 -185l186 185l42 -42l-185 -185l185 -185l-42 -42l-186 185l-184 -185l-42 42z" />
    <glyph glyph-name="Oslash" unicode="&#xd8;" horiz-adv-x="870" 
d="M639 568l-383 -461q75 -85 183 -85q134 0 202 87.5t68 232.5q0 129 -70 226zM231 139l383 460q-76 81 -181 81q-117 0 -194.5 -78t-77.5 -240q0 -122 70 -223zM656 650l77 92l30 -26l-76 -91q57 -52 89.5 -122t32.5 -150q0 -67 -25.5 -132t-72 -118.5t-119 -86
t-159.5 -32.5q-126 0 -222 69l-74 -89l-30 26l73 88q-119 105 -119 267q0 163 111.5 270t263.5 107q123 0 220 -72z" />
    <glyph glyph-name="Ugrave" unicode="&#xd9;" horiz-adv-x="778" 
d="M276 709v-30h-19q-32 -2 -46.5 -21t-15.5 -78q0 -35 -2 -145.5t-2 -170.5q0 -61 9.5 -96.5t31.5 -65.5q55 -80 166 -80q61 0 113.5 28t73.5 58q48 67 48 178v106q0 93 -6.5 168.5t-13.5 91.5q-8 17 -17.5 22t-29.5 5h-21v30q84 -3 105 -3q16 0 34 0.5t39.5 1.5t33.5 1
v-30h-15q-31 0 -46 -21.5t-15 -87.5v-256q0 -161 -78 -248q-32 -35 -91 -58.5t-120 -23.5q-106 0 -194 66q-95 70 -95 237v315q0 45 -16.5 61t-47.5 16h-18v30q123 -3 128 -3q1 0 127 3zM455 754l-6 -12q-60 2 -105.5 37.5t-61.5 78.5l88 6q4 -26 28.5 -57.5t56.5 -52.5z
" />
    <glyph glyph-name="Uacute" unicode="&#xda;" horiz-adv-x="778" 
d="M276 709v-30h-19q-32 -2 -46.5 -21t-15.5 -78q0 -35 -2 -145.5t-2 -170.5q0 -61 9.5 -96.5t31.5 -65.5q55 -80 166 -80q61 0 113.5 28t73.5 58q48 67 48 178v106q0 93 -6.5 168.5t-13.5 91.5q-8 17 -17.5 22t-29.5 5h-21v30q84 -3 105 -3q16 0 34 0.5t39.5 1.5t33.5 1
v-30h-15q-31 0 -46 -21.5t-15 -87.5v-256q0 -161 -78 -248q-32 -35 -91 -58.5t-120 -23.5q-106 0 -194 66q-95 70 -95 237v315q0 45 -16.5 61t-47.5 16h-18v30q123 -3 128 -3q1 0 127 3zM329 742l-6 12q32 21 56.5 52.5t28.5 57.5l88 -6q-16 -43 -61.5 -78.5t-105.5 -37.5z
" />
    <glyph glyph-name="Ucircumflex" unicode="&#xdb;" horiz-adv-x="778" 
d="M276 709v-30h-19q-32 -2 -46.5 -21t-15.5 -78q0 -35 -2 -145.5t-2 -170.5q0 -61 9.5 -96.5t31.5 -65.5q55 -80 166 -80q61 0 113.5 28t73.5 58q48 67 48 178v106q0 93 -6.5 168.5t-13.5 91.5q-8 17 -17.5 22t-29.5 5h-21v30q84 -3 105 -3q16 0 34 0.5t39.5 1.5t33.5 1
v-30h-15q-31 0 -46 -21.5t-15 -87.5v-256q0 -161 -78 -248q-32 -35 -91 -58.5t-120 -23.5q-106 0 -194 66q-95 70 -95 237v315q0 45 -16.5 61t-47.5 16h-18v30q123 -3 128 -3q1 0 127 3zM356 884l55 8q34 -80 105 -135l-14 -15q-64 16 -113 65q-60 -51 -116 -65l-11 14
q71 69 94 128z" />
    <glyph glyph-name="Udieresis" unicode="&#xdc;" horiz-adv-x="778" 
d="M276 709v-30h-19q-32 -2 -46.5 -21t-15.5 -78q0 -35 -2 -145.5t-2 -170.5q0 -61 9.5 -96.5t31.5 -65.5q55 -80 166 -80q61 0 113.5 28t73.5 58q48 67 48 178v106q0 93 -6.5 168.5t-13.5 91.5q-8 17 -17.5 22t-29.5 5h-21v30q84 -3 105 -3q16 0 34 0.5t39.5 1.5t33.5 1
v-30h-15q-31 0 -46 -21.5t-15 -87.5v-256q0 -161 -78 -248q-32 -35 -91 -58.5t-120 -23.5q-106 0 -194 66q-95 70 -95 237v315q0 45 -16.5 61t-47.5 16h-18v30q123 -3 128 -3q1 0 127 3zM436 820q0 20 14 34t34 14t34 -14t14 -34t-14 -34t-34 -14t-34 14t-14 34zM246 820
q0 20 14 34t34 14t34 -14t14 -34t-14 -34t-34 -14t-34 14t-14 34z" />
    <glyph glyph-name="Yacute" unicode="&#xdd;" horiz-adv-x="685" 
d="M223 -3v30h24q36 0 48.5 15.5t12.5 55.5v158l-192 344q-29 52 -46.5 65.5t-54.5 13.5h-9v30q15 0 40.5 -1t46.5 -1.5t39 -0.5q1 0 127 3v-30h-18q-37 0 -37 -32q0 -19 22 -59l148 -267l138 264q27 51 27 71q0 23 -39 23h-19v30q16 0 49 -1.5t50 -1.5q3 0 99 3v-30h-25
q-30 0 -43.5 -12.5t-37.5 -58.5l-177 -331v-179q0 -42 14.5 -56.5t46.5 -14.5h20v-30q-126 3 -127 3q-16 0 -127 -3zM283 742l-6 12q32 21 56.5 52.5t28.5 57.5l88 -6q-16 -43 -61.5 -78.5t-105.5 -37.5z" />
    <glyph glyph-name="Thorn" unicode="&#xde;" horiz-adv-x="574" 
d="M38 -3v30h18q36 0 51 17.5t15 64.5v488q0 47 -15 64.5t-51 17.5h-18v30q105 -3 128 -3q20 0 41.5 0.5t47.5 1.5t41 1v-30h-29q-33 0 -45 -19.5t-12 -86.5v-11q72 4 119 4q57 0 100 -18t66 -47.5t34 -60.5t11 -63q0 -36 -12 -68t-37.5 -60.5t-74 -45.5t-114.5 -17
q-30 0 -92 6v-59q0 -67 12 -86.5t45 -19.5h29v-30q-15 0 -41 1t-47.5 1.5t-41.5 0.5q-23 0 -128 -3zM210 532v-284q49 -24 103 -24q68 0 99.5 40.5t31.5 93.5q0 87 -45 132.5t-126 45.5q-29 0 -63 -4z" />
    <glyph glyph-name="germandbls" unicode="&#xdf;" horiz-adv-x="574" 
d="M231 14v87h18q8 -39 33 -60t58 -21q44 0 79 35t35 91q0 38 -19.5 70.5t-48 54.5l-56.5 42.5t-47.5 45t-19.5 50.5q0 23 18 51.5t40 50.5t40 53.5t18 60.5q0 50 -30 83t-72 33q-31 0 -52.5 -16.5t-31.5 -43.5t-13.5 -51t-3.5 -50v-580h-60q-18 0 -84 -3v30h5q40 0 51.5 13
t11.5 48v318h-84l7 38h77v52q0 271 179 271q60 0 110 -39.5t50 -104.5q0 -38 -19.5 -70.5t-42.5 -50t-42.5 -36.5t-19.5 -35q0 -17 22.5 -34.5t54.5 -35.5t64.5 -41.5t55 -61.5t22.5 -85q0 -72 -53.5 -127.5t-143.5 -55.5q-51 0 -106 24z" />
    <glyph glyph-name="agrave" unicode="&#xe0;" horiz-adv-x="463" 
d="M298 264v37q0 46 -21 80.5t-63 34.5q-22 0 -49 -18t-27 -38q0 -15 14 -45l-64 -31q-18 38 -18 53q0 23 16 41t51 39q61 37 94 37q44 0 74.5 -14t44 -36.5t19 -42.5t5.5 -40v-203q0 -38 6 -51t19 -13q15 0 45 14v-27l-97 -46q-11 -5 -19 -5q-16 0 -25 57
q-48 -35 -76.5 -46t-61.5 -11q-52 0 -82.5 32.5t-30.5 75.5t24.5 66t80.5 45zM298 133v97l-104 -43q-66 -26 -66 -72q0 -24 21.5 -48.5t58.5 -24.5q36 0 93 43q-3 17 -3 48zM298 542l-6 -12q-60 2 -105.5 37.5t-61.5 78.5l88 6q4 -26 28.5 -57.5t56.5 -52.5z" />
    <glyph glyph-name="aacute" unicode="&#xe1;" horiz-adv-x="463" 
d="M298 264v37q0 46 -21 80.5t-63 34.5q-22 0 -49 -18t-27 -38q0 -15 14 -45l-64 -31q-18 38 -18 53q0 23 16 41t51 39q61 37 94 37q44 0 74.5 -14t44 -36.5t19 -42.5t5.5 -40v-203q0 -38 6 -51t19 -13q15 0 45 14v-27l-97 -46q-11 -5 -19 -5q-16 0 -25 57
q-48 -35 -76.5 -46t-61.5 -11q-52 0 -82.5 32.5t-30.5 75.5t24.5 66t80.5 45zM298 133v97l-104 -43q-66 -26 -66 -72q0 -24 21.5 -48.5t58.5 -24.5q36 0 93 43q-3 17 -3 48zM172 530l-6 12q32 21 56.5 52.5t28.5 57.5l88 -6q-16 -43 -61.5 -78.5t-105.5 -37.5z" />
    <glyph glyph-name="acircumflex" unicode="&#xe2;" horiz-adv-x="463" 
d="M298 264v37q0 46 -21 80.5t-63 34.5q-22 0 -49 -18t-27 -38q0 -15 14 -45l-64 -31q-18 38 -18 53q0 23 16 41t51 39q61 37 94 37q44 0 74.5 -14t44 -36.5t19 -42.5t5.5 -40v-203q0 -38 6 -51t19 -13q15 0 45 14v-27l-97 -46q-11 -5 -19 -5q-16 0 -25 57
q-48 -35 -76.5 -46t-61.5 -11q-52 0 -82.5 32.5t-30.5 75.5t24.5 66t80.5 45zM298 133v97l-104 -43q-66 -26 -66 -72q0 -24 21.5 -48.5t58.5 -24.5q36 0 93 43q-3 17 -3 48zM199 672l55 8q34 -80 105 -135l-14 -15q-64 16 -113 65q-60 -51 -116 -65l-11 14q71 69 94 128z
" />
    <glyph glyph-name="atilde" unicode="&#xe3;" horiz-adv-x="463" 
d="M298 264v37q0 46 -21 80.5t-63 34.5q-22 0 -49 -18t-27 -38q0 -15 14 -45l-64 -31q-18 38 -18 53q0 23 16 41t51 39q61 37 94 37q44 0 74.5 -14t44 -36.5t19 -42.5t5.5 -40v-203q0 -38 6 -51t19 -13q15 0 45 14v-27l-97 -46q-11 -5 -19 -5q-16 0 -25 57
q-48 -35 -76.5 -46t-61.5 -11q-52 0 -82.5 32.5t-30.5 75.5t24.5 66t80.5 45zM298 133v97l-104 -43q-66 -26 -66 -72q0 -24 21.5 -48.5t58.5 -24.5q36 0 93 43q-3 17 -3 48zM371 635l22 -9q-14 -28 -23.5 -42.5t-26 -27t-36.5 -12.5q-39 0 -88 22q-52 23 -73 23
q-30 0 -53 -39l-22 9q14 28 23.5 42.5t26 27t36.5 12.5q32 0 88 -22q56 -23 73 -23q30 0 53 39z" />
    <glyph glyph-name="adieresis" unicode="&#xe4;" horiz-adv-x="463" 
d="M298 264v37q0 46 -21 80.5t-63 34.5q-22 0 -49 -18t-27 -38q0 -15 14 -45l-64 -31q-18 38 -18 53q0 23 16 41t51 39q61 37 94 37q44 0 74.5 -14t44 -36.5t19 -42.5t5.5 -40v-203q0 -38 6 -51t19 -13q15 0 45 14v-27l-97 -46q-11 -5 -19 -5q-16 0 -25 57
q-48 -35 -76.5 -46t-61.5 -11q-52 0 -82.5 32.5t-30.5 75.5t24.5 66t80.5 45zM298 133v97l-104 -43q-66 -26 -66 -72q0 -24 21.5 -48.5t58.5 -24.5q36 0 93 43q-3 17 -3 48zM279 608q0 20 14 34t34 14t34 -14t14 -34t-14 -34t-34 -14t-34 14t-14 34zM89 608q0 20 14 34
t34 14t34 -14t14 -34t-14 -34t-34 -14t-34 14t-14 34z" />
    <glyph glyph-name="aring" unicode="&#xe5;" horiz-adv-x="463" 
d="M298 264v37q0 46 -21 80.5t-63 34.5q-22 0 -49 -18t-27 -38q0 -15 14 -45l-64 -31q-18 38 -18 53q0 23 16 41t51 39q61 37 94 37q44 0 74.5 -14t44 -36.5t19 -42.5t5.5 -40v-203q0 -38 6 -51t19 -13q15 0 45 14v-27l-97 -46q-11 -5 -19 -5q-16 0 -25 57
q-48 -35 -76.5 -46t-61.5 -11q-52 0 -82.5 32.5t-30.5 75.5t24.5 66t80.5 45zM298 133v97l-104 -43q-66 -26 -66 -72q0 -24 21.5 -48.5t58.5 -24.5q36 0 93 43q-3 17 -3 48zM131 616q0 42 29.5 71.5t71.5 29.5t71.5 -29.5t29.5 -71.5t-29.5 -71.5t-71.5 -29.5t-71.5 29.5
t-29.5 71.5zM169 616q0 -26 18.5 -44.5t44.5 -18.5t44.5 18.5t18.5 44.5t-18.5 44.5t-44.5 18.5t-44.5 -18.5t-18.5 -44.5z" />
    <glyph glyph-name="ae" unicode="&#xe6;" horiz-adv-x="704" 
d="M276 264v37q0 46 -21 80.5t-61 34.5q-22 0 -49 -18t-27 -38q0 -15 14 -45l-64 -31q-18 38 -18 53q0 23 16 41t51 39q61 37 94 37q86 0 126 -69q55 69 150 69q33 0 63.5 -10t59 -31t45.5 -61t17 -93h-316q1 -62 18 -109t44 -71t54 -35.5t53 -11.5q82 0 140 41v-30
q-85 -53 -169 -53q-112 0 -179 97q-90 -97 -172 -97q-52 0 -82.5 32.5t-30.5 75.5t24.5 66t80.5 45zM276 230l-102 -43q-66 -26 -66 -72q0 -24 21.5 -48.5t58.5 -24.5q49 0 116 70q-13 24 -20.5 61t-7.5 57zM356 293h236q0 62 -35.5 94.5t-80.5 32.5q-44 0 -80 -33t-40 -94z
" />
    <glyph glyph-name="ccedilla" unicode="&#xe7;" horiz-adv-x="463" 
d="M433 80l3 -27q-87 -63 -171 -63h-2l-26 -60l2 -2q10 2 30 2q44 0 63 -22t19 -43q0 -35 -28.5 -60t-93.5 -25q-63 0 -103 22l12 32q56 -20 84 -20q57 0 57 44q0 20 -16 29t-37 9q-23 0 -40 -4l44 102q-81 11 -135.5 74.5t-54.5 149.5q0 40 16 80.5t44.5 76t75 57.5
t102.5 22q71 0 137 -29l6 -94l-8 -2q-26 41 -68 66t-86 25q-64 0 -103.5 -46.5t-39.5 -110.5q0 -90 53.5 -157.5t129.5 -67.5q63 0 134 42z" />
    <glyph glyph-name="egrave" unicode="&#xe8;" horiz-adv-x="481" 
d="M442 73v-30q-85 -53 -169 -53q-111 0 -172 72.5t-61 163.5q0 88 65 158t150 70q91 0 142.5 -51t51.5 -134v-10h-329q3 -102 48.5 -164.5t133.5 -62.5q82 0 140 41zM120 293h249q0 31 -10 55t-24 37t-32 21.5t-31.5 11t-24.5 2.5q-42 0 -73 -25t-42.5 -52.5t-11.5 -49.5z
M307 542l-6 -12q-60 2 -105.5 37.5t-61.5 78.5l88 6q4 -26 28.5 -57.5t56.5 -52.5z" />
    <glyph glyph-name="eacute" unicode="&#xe9;" horiz-adv-x="481" 
d="M442 73v-30q-85 -53 -169 -53q-111 0 -172 72.5t-61 163.5q0 88 65 158t150 70q91 0 142.5 -51t51.5 -134v-10h-329q3 -102 48.5 -164.5t133.5 -62.5q82 0 140 41zM120 293h249q0 31 -10 55t-24 37t-32 21.5t-31.5 11t-24.5 2.5q-42 0 -73 -25t-42.5 -52.5t-11.5 -49.5z
M181 530l-6 12q32 21 56.5 52.5t28.5 57.5l88 -6q-16 -43 -61.5 -78.5t-105.5 -37.5z" />
    <glyph glyph-name="ecircumflex" unicode="&#xea;" horiz-adv-x="481" 
d="M442 73v-30q-85 -53 -169 -53q-111 0 -172 72.5t-61 163.5q0 88 65 158t150 70q91 0 142.5 -51t51.5 -134v-10h-329q3 -102 48.5 -164.5t133.5 -62.5q82 0 140 41zM120 293h249q0 31 -10 55t-24 37t-32 21.5t-31.5 11t-24.5 2.5q-42 0 -73 -25t-42.5 -52.5t-11.5 -49.5z
M208 672l55 8q34 -80 105 -135l-14 -15q-64 16 -113 65q-60 -51 -116 -65l-11 14q71 69 94 128z" />
    <glyph glyph-name="edieresis" unicode="&#xeb;" horiz-adv-x="481" 
d="M442 73v-30q-85 -53 -169 -53q-111 0 -172 72.5t-61 163.5q0 88 65 158t150 70q91 0 142.5 -51t51.5 -134v-10h-329q3 -102 48.5 -164.5t133.5 -62.5q82 0 140 41zM120 293h249q0 31 -10 55t-24 37t-32 21.5t-31.5 11t-24.5 2.5q-42 0 -73 -25t-42.5 -52.5t-11.5 -49.5z
M288 608q0 20 14 34t34 14t34 -14t14 -34t-14 -34t-34 -14t-34 14t-14 34zM98 608q0 20 14 34t34 14t34 -14t14 -34t-14 -34t-34 -14t-34 14t-14 34z" />
    <glyph glyph-name="igrave" unicode="&#xec;" 
d="M27 352v30q32 12 75.5 34.5t64.5 37.5h10v-344q0 -50 14.5 -66.5t44.5 -16.5h20v-30q-114 3 -117 3t-117 -3v30h20q30 0 44.5 16.5t14.5 66.5v202q0 51 -31 51q-19 0 -43 -11zM205 542l-6 -12q-60 2 -105.5 37.5t-61.5 78.5l88 6q4 -26 28.5 -57.5t56.5 -52.5z" />
    <glyph glyph-name="iacute" unicode="&#xed;" 
d="M27 352v30q32 12 75.5 34.5t64.5 37.5h10v-344q0 -50 14.5 -66.5t44.5 -16.5h20v-30q-114 3 -117 3t-117 -3v30h20q30 0 44.5 16.5t14.5 66.5v202q0 51 -31 51q-19 0 -43 -11zM79 530l-6 12q32 21 56.5 52.5t28.5 57.5l88 -6q-16 -43 -61.5 -78.5t-105.5 -37.5z" />
    <glyph glyph-name="icircumflex" unicode="&#xee;" 
d="M27 352v30q32 12 75.5 34.5t64.5 37.5h10v-344q0 -50 14.5 -66.5t44.5 -16.5h20v-30q-114 3 -117 3t-117 -3v30h20q30 0 44.5 16.5t14.5 66.5v202q0 51 -31 51q-19 0 -43 -11zM106 672l55 8q34 -80 105 -135l-14 -15q-64 16 -113 65q-60 -51 -116 -65l-11 14
q71 69 94 128z" />
    <glyph glyph-name="idieresis" unicode="&#xef;" 
d="M27 352v30q32 12 75.5 34.5t64.5 37.5h10v-344q0 -50 14.5 -66.5t44.5 -16.5h20v-30q-114 3 -117 3t-117 -3v30h20q30 0 44.5 16.5t14.5 66.5v202q0 51 -31 51q-19 0 -43 -11zM186 608q0 20 14 34t34 14t34 -14t14 -34t-14 -34t-34 -14t-34 14t-14 34zM-4 608q0 20 14 34
t34 14t34 -14t14 -34t-14 -34t-34 -14t-34 14t-14 34z" />
    <glyph glyph-name="eth" unicode="&#xf0;" horiz-adv-x="537" 
d="M413 191q0 81 -43 155t-117 74q-56 0 -92.5 -45t-36.5 -127q0 -52 16.5 -101.5t54 -86t88.5 -36.5q68 0 99 45t31 122zM264 666l91 40l21 -24l-80 -36q91 -64 146 -160.5t55 -211.5q0 -137 -58.5 -210.5t-170.5 -73.5q-90 0 -159 65.5t-69 173.5q0 89 66 157t161 68
q37 0 79 -21.5t73 -68.5h2q-47 161 -176 259l-93 -42l-21 25l85 38q-46 32 -112 62l14 16q78 -15 146 -56z" />
    <glyph glyph-name="ntilde" unicode="&#xf1;" horiz-adv-x="556" 
d="M24 -3v30h18q34 0 43.5 13t9.5 57v170q0 64 -8 84.5t-27 20.5q-14 0 -36 -11v30q67 22 131 63h10v-88q83 88 152 88q31 0 66.5 -18.5t55.5 -57.5q22 -41 22 -121v-181q0 -30 10 -39.5t46 -9.5h15v-30q-72 3 -103 3q-28 0 -109 -3v30h18q30 0 38.5 17t8.5 66v157
q0 43 -6.5 65.5t-26.5 41.5q-24 24 -69 24q-49 0 -112 -60v-258q0 -34 7.5 -43.5t36.5 -9.5h19v-30q-69 3 -100 3q-14 0 -110 -3zM417 635l22 -9q-14 -28 -23.5 -42.5t-26 -27t-36.5 -12.5q-39 0 -88 22q-52 23 -73 23q-30 0 -53 -39l-22 9q14 28 23.5 42.5t26 27t36.5 12.5
q32 0 88 -22q56 -23 73 -23q30 0 53 39z" />
    <glyph glyph-name="ograve" unicode="&#xf2;" horiz-adv-x="537" 
d="M413 191q0 93 -44 161t-122 68q-50 0 -86.5 -46t-36.5 -126q0 -52 16.5 -101.5t54 -86t88.5 -36.5q68 0 99 45t31 122zM40 229q0 87 61 156t163 69q105 0 169 -70t64 -174q0 -91 -65 -155.5t-164 -64.5q-90 0 -159 65.5t-69 173.5zM335 542l-6 -12q-60 2 -105.5 37.5
t-61.5 78.5l88 6q4 -26 28.5 -57.5t56.5 -52.5z" />
    <glyph glyph-name="oacute" unicode="&#xf3;" horiz-adv-x="537" 
d="M413 191q0 93 -44 161t-122 68q-50 0 -86.5 -46t-36.5 -126q0 -52 16.5 -101.5t54 -86t88.5 -36.5q68 0 99 45t31 122zM40 229q0 87 61 156t163 69q105 0 169 -70t64 -174q0 -91 -65 -155.5t-164 -64.5q-90 0 -159 65.5t-69 173.5zM209 530l-6 12q32 21 56.5 52.5
t28.5 57.5l88 -6q-16 -43 -61.5 -78.5t-105.5 -37.5z" />
    <glyph glyph-name="ocircumflex" unicode="&#xf4;" horiz-adv-x="537" 
d="M413 191q0 93 -44 161t-122 68q-50 0 -86.5 -46t-36.5 -126q0 -52 16.5 -101.5t54 -86t88.5 -36.5q68 0 99 45t31 122zM40 229q0 87 61 156t163 69q105 0 169 -70t64 -174q0 -91 -65 -155.5t-164 -64.5q-90 0 -159 65.5t-69 173.5zM236 672l55 8q34 -80 105 -135l-14 -15
q-64 16 -113 65q-60 -51 -116 -65l-11 14q71 69 94 128z" />
    <glyph glyph-name="otilde" unicode="&#xf5;" horiz-adv-x="537" 
d="M413 191q0 93 -44 161t-122 68q-50 0 -86.5 -46t-36.5 -126q0 -52 16.5 -101.5t54 -86t88.5 -36.5q68 0 99 45t31 122zM40 229q0 87 61 156t163 69q105 0 169 -70t64 -174q0 -91 -65 -155.5t-164 -64.5q-90 0 -159 65.5t-69 173.5zM408 635l22 -9q-14 -28 -23.5 -42.5
t-26 -27t-36.5 -12.5q-39 0 -88 22q-52 23 -73 23q-30 0 -53 -39l-22 9q14 28 23.5 42.5t26 27t36.5 12.5q32 0 88 -22q56 -23 73 -23q30 0 53 39z" />
    <glyph glyph-name="odieresis" unicode="&#xf6;" horiz-adv-x="537" 
d="M413 191q0 93 -44 161t-122 68q-50 0 -86.5 -46t-36.5 -126q0 -52 16.5 -101.5t54 -86t88.5 -36.5q68 0 99 45t31 122zM40 229q0 87 61 156t163 69q105 0 169 -70t64 -174q0 -91 -65 -155.5t-164 -64.5q-90 0 -159 65.5t-69 173.5zM316 608q0 20 14 34t34 14t34 -14
t14 -34t-14 -34t-34 -14t-34 14t-14 34zM126 608q0 20 14 34t34 14t34 -14t14 -34t-14 -34t-34 -14t-34 14t-14 34z" />
    <glyph glyph-name="divide" unicode="&#xf7;" horiz-adv-x="600" 
d="M47 223v60h506v-60h-506zM240 462q0 25 17.5 42.5t42.5 17.5t42.5 -17.5t17.5 -42.5t-17.5 -42.5t-42.5 -17.5t-42.5 17.5t-17.5 42.5zM240 44q0 25 17.5 42.5t42.5 17.5t42.5 -17.5t17.5 -42.5t-17.5 -42.5t-42.5 -17.5t-42.5 17.5t-17.5 42.5z" />
    <glyph glyph-name="oslash" unicode="&#xf8;" horiz-adv-x="537" 
d="M380 331l-204 -249q41 -58 107 -58q68 0 99 45t31 122q0 81 -33 140zM157 112l204 248q-44 60 -114 60q-50 0 -86.5 -46t-36.5 -126q0 -76 33 -136zM56 -11l54 66q-70 68 -70 174q0 87 61 156t163 69q81 0 138 -43l53 64l26 -21l-53 -65q69 -69 69 -179q0 -91 -65 -155.5
t-164 -64.5q-74 0 -132 44l-54 -66z" />
    <glyph glyph-name="ugrave" unicode="&#xf9;" horiz-adv-x="574" 
d="M97 189v135q0 48 -32 48q-26 0 -45 -11v30q60 18 141 63h12v-263q0 -70 23 -109.5t81 -39.5q42 0 124 57v225q0 48 -32 48q-16 0 -41 -11v30q58 19 137 63h12v-353q0 -30 6 -39t17 -9q6 0 54 17v-30l-130 -56l-7 3q-10 25 -12 76q-3 -2 -17 -10.5t-18.5 -11.5t-17.5 -11
t-19.5 -11t-18.5 -9t-20 -8.5l-19 -6t-20.5 -4.5t-19.5 -1q-71 0 -110 54q-18 25 -23 55.5t-5 89.5zM353 542l-6 -12q-60 2 -105.5 37.5t-61.5 78.5l88 6q4 -26 28.5 -57.5t56.5 -52.5z" />
    <glyph glyph-name="uacute" unicode="&#xfa;" horiz-adv-x="574" 
d="M97 189v135q0 48 -32 48q-26 0 -45 -11v30q60 18 141 63h12v-263q0 -70 23 -109.5t81 -39.5q42 0 124 57v225q0 48 -32 48q-16 0 -41 -11v30q58 19 137 63h12v-353q0 -30 6 -39t17 -9q6 0 54 17v-30l-130 -56l-7 3q-10 25 -12 76q-3 -2 -17 -10.5t-18.5 -11.5t-17.5 -11
t-19.5 -11t-18.5 -9t-20 -8.5l-19 -6t-20.5 -4.5t-19.5 -1q-71 0 -110 54q-18 25 -23 55.5t-5 89.5zM227 530l-6 12q32 21 56.5 52.5t28.5 57.5l88 -6q-16 -43 -61.5 -78.5t-105.5 -37.5z" />
    <glyph glyph-name="ucircumflex" unicode="&#xfb;" horiz-adv-x="574" 
d="M97 189v135q0 48 -32 48q-26 0 -45 -11v30q60 18 141 63h12v-263q0 -70 23 -109.5t81 -39.5q42 0 124 57v225q0 48 -32 48q-16 0 -41 -11v30q58 19 137 63h12v-353q0 -30 6 -39t17 -9q6 0 54 17v-30l-130 -56l-7 3q-10 25 -12 76q-3 -2 -17 -10.5t-18.5 -11.5t-17.5 -11
t-19.5 -11t-18.5 -9t-20 -8.5l-19 -6t-20.5 -4.5t-19.5 -1q-71 0 -110 54q-18 25 -23 55.5t-5 89.5zM254 672l55 8q34 -80 105 -135l-14 -15q-64 16 -113 65q-60 -51 -116 -65l-11 14q71 69 94 128z" />
    <glyph glyph-name="udieresis" unicode="&#xfc;" horiz-adv-x="574" 
d="M97 189v135q0 48 -32 48q-26 0 -45 -11v30q60 18 141 63h12v-263q0 -70 23 -109.5t81 -39.5q42 0 124 57v225q0 48 -32 48q-16 0 -41 -11v30q58 19 137 63h12v-353q0 -30 6 -39t17 -9q6 0 54 17v-30l-130 -56l-7 3q-10 25 -12 76q-3 -2 -17 -10.5t-18.5 -11.5t-17.5 -11
t-19.5 -11t-18.5 -9t-20 -8.5l-19 -6t-20.5 -4.5t-19.5 -1q-71 0 -110 54q-18 25 -23 55.5t-5 89.5zM334 608q0 20 14 34t34 14t34 -14t14 -34t-14 -34t-34 -14t-34 14t-14 34zM144 608q0 20 14 34t34 14t34 -14t14 -34t-14 -34t-34 -14t-34 14t-14 34z" />
    <glyph glyph-name="yacute" unicode="&#xfd;" horiz-adv-x="500" 
d="M52 -216v82h10q25 -22 57 -22q64 0 108 102l16 38l-159 374q-15 33 -29 46t-42 13h-6v30q90 -3 95 -3q17 0 49.5 1.5t49.5 1.5v-30h-10q-37 0 -37 -27q0 -18 12 -44l114 -264l83 244q13 42 13 55q0 36 -45 36h-7v30q7 0 36.5 -1.5t43.5 -1.5q13 0 28 0.5t33 1.5t28 1v-30
h-8q-33 0 -49 -20.5t-36 -76.5l-136 -375q-30 -84 -69.5 -124.5t-111.5 -40.5q-9 0 -31 4zM190 530l-6 12q32 21 56.5 52.5t28.5 57.5l88 -6q-16 -43 -61.5 -78.5t-105.5 -37.5z" />
    <glyph glyph-name="thorn" unicode="&#xfe;" horiz-adv-x="574" 
d="M20 -220v30h13q34 0 47.5 14t13.5 48v776q0 51 -31 51q-19 0 -43 -11v30q32 12 75.5 34.5t64.5 37.5h10v-411q93 75 167 75q88 0 137.5 -65t49.5 -152q0 -97 -64 -172t-181 -75q-61 0 -109 24v-142q0 -38 12 -50t43 -12h17v-30q-96 3 -104 3q-16 0 -118 -3zM170 337v-263
q24 -18 35.5 -26t36 -16t54.5 -8q71 0 111.5 48.5t40.5 124.5q0 99 -46 148t-106 49q-25 0 -49 -9t-39 -19t-38 -29z" />
    <glyph glyph-name="ydieresis" unicode="&#xff;" horiz-adv-x="500" 
d="M52 -216v82h10q25 -22 57 -22q64 0 108 102l16 38l-159 374q-15 33 -29 46t-42 13h-6v30q90 -3 95 -3q17 0 49.5 1.5t49.5 1.5v-30h-10q-37 0 -37 -27q0 -18 12 -44l114 -264l83 244q13 42 13 55q0 36 -45 36h-7v30q7 0 36.5 -1.5t43.5 -1.5q13 0 28 0.5t33 1.5t28 1v-30
h-8q-33 0 -49 -20.5t-36 -76.5l-136 -375q-30 -84 -69.5 -124.5t-111.5 -40.5q-9 0 -31 4zM297 608q0 20 14 34t34 14t34 -14t14 -34t-14 -34t-34 -14t-34 14t-14 34zM107 608q0 20 14 34t34 14t34 -14t14 -34t-14 -34t-34 -14t-34 14t-14 34z" />
    <glyph glyph-name="dotlessi" unicode="&#x131;" 
d="M27 352v30q32 12 75.5 34.5t64.5 37.5h10v-344q0 -50 14.5 -66.5t44.5 -16.5h20v-30q-114 3 -117 3t-117 -3v30h20q30 0 44.5 16.5t14.5 66.5v202q0 51 -31 51q-19 0 -43 -11z" />
    <glyph glyph-name="Lslash" unicode="&#x141;" horiz-adv-x="630" 
d="M46 289v42l84 52v214q0 47 -15 64.5t-51 17.5h-18v30q105 -3 128 -3q26 0 75.5 1.5t57.5 1.5v-30h-23q-36 0 -51 -17.5t-15 -64.5v-159l182 113v-42l-182 -113v-264q0 -41 9 -60.5t39 -30t91 -10.5q63 0 98.5 5.5t57 24t30 42.5t15.5 71h31l-6 -177q-264 3 -289 3
q-143 0 -248 -3v30h18q36 0 51 17.5t15 64.5v232z" />
    <glyph glyph-name="lslash" unicode="&#x142;" 
d="M22 -3v30h20q30 0 44.5 16.5t14.5 66.5v270l-73 -54v38l73 54v227q0 50 -37 50q-13 0 -42 -11v34q73 29 148 72h10q-3 -34 -3 -190v-124l71 53v-38l-71 -53v-328q0 -50 14.5 -66.5t44.5 -16.5h20v-30q-114 3 -117 3t-117 -3z" />
    <glyph glyph-name="OE" unicode="&#x152;" horiz-adv-x="1019" 
d="M609 671v-283h87q60 0 87.5 9t33.5 23t7 48h28q-2 -46 -2 -98q0 -51 2 -91h-28q-3 30 -8 42t-30.5 20.5t-80.5 8.5h-96v-239q0 -45 18.5 -60.5t67.5 -15.5h27q125 0 170.5 29.5t57.5 113.5h28l-20 -181q-33 0 -98.5 0.5t-98.5 1.5q-66 1 -198 1q-1 0 -64 -5
q-65 -5 -86 -5q-139 0 -245.5 103.5t-106.5 261.5q0 65 25 128t70 115.5t116.5 85t156.5 32.5q35 0 73 -5q37 -5 61 -5q1 0 355 3q4 -112 9 -170h-28q-3 21 -4.5 30t-7 26.5t-13 25.5t-22 19.5t-33.5 17t-48 9.5t-66 4h-96zM521 121v462q0 56 -18 75.5t-73 19.5
q-137 0 -203 -83.5t-66 -216.5q0 -151 86 -250.5t197 -99.5q42 0 59.5 22t17.5 71z" />
    <glyph glyph-name="oe" unicode="&#x153;" horiz-adv-x="853" 
d="M493 293h248q0 31 -10 55t-24 37t-32 21.5t-31.5 11t-24.5 2.5q-42 0 -72.5 -25t-42 -52.5t-11.5 -49.5zM275 24q68 0 99 45t31 122q0 107 -46.5 168t-108.5 61q-56 0 -95 -45.5t-39 -126.5q0 -52 16.5 -101.5t54 -86t88.5 -36.5zM821 259h-328q2 -102 47 -164.5
t134 -62.5q82 0 140 41v-30q-85 -53 -169 -53q-125 0 -193 99q-30 -45 -80 -72t-112 -27q-90 0 -159 65.5t-69 173.5q0 87 61 156t163 69q121 0 193 -105q60 105 178 105q91 0 142.5 -51t51.5 -134v-10z" />
    <glyph glyph-name="Scaron" unicode="&#x160;" horiz-adv-x="556" 
d="M471 695v-168h-34q0 15 -2 29t-11.5 39.5t-25 43t-47 31.5t-74.5 14q-61 0 -98.5 -34t-37.5 -84q0 -44 26 -76.5t87 -60.5l92 -42q149 -68 149 -187q0 -97 -64 -156.5t-185 -59.5q-100 0 -179 25l-4 164h30q6 -68 55.5 -111.5t114.5 -43.5q67 0 113.5 37.5t46.5 98.5
q0 31 -10.5 55.5t-32.5 42.5t-38 27.5t-44 23.5l-108 51q-129 61 -129 172q0 80 62.5 138t160.5 58q47 0 187 -27zM311 750l-55 -8q-34 80 -105 135l14 15q64 -16 113 -65q60 51 116 65l11 -14q-71 -69 -94 -128z" />
    <glyph glyph-name="scaron" unicode="&#x161;" horiz-adv-x="370" 
d="M319 434l4 -104h-20q-6 21 -11 32t-16.5 27t-31.5 23.5t-49 7.5q-43 0 -64 -21t-21 -46q0 -28 20.5 -46t56.5 -35l55 -25q18 -9 29 -15t29 -20.5t27 -36t9 -48.5q0 -58 -42.5 -97.5t-119.5 -39.5q-62 0 -140 26q3 29 3 59q0 31 -3 59h28q6 -53 35 -81.5t76 -28.5
q40 0 67.5 18t27.5 57q0 22 -12.5 39t-23.5 24t-35 19l-75 38q-80 40 -80 110q0 46 39 85.5t116 39.5q45 0 122 -20zM218 538l-55 -8q-34 80 -105 135l14 15q64 -16 113 -65q60 51 116 65l11 -14q-71 -69 -94 -128z" />
    <glyph glyph-name="Ydieresis" unicode="&#x178;" horiz-adv-x="685" 
d="M223 -3v30h24q36 0 48.5 15.5t12.5 55.5v158l-192 344q-29 52 -46.5 65.5t-54.5 13.5h-9v30q15 0 40.5 -1t46.5 -1.5t39 -0.5q1 0 127 3v-30h-18q-37 0 -37 -32q0 -19 22 -59l148 -267l138 264q27 51 27 71q0 23 -39 23h-19v30q16 0 49 -1.5t50 -1.5q3 0 99 3v-30h-25
q-30 0 -43.5 -12.5t-37.5 -58.5l-177 -331v-179q0 -42 14.5 -56.5t46.5 -14.5h20v-30q-126 3 -127 3q-16 0 -127 -3zM390 820q0 20 14 34t34 14t34 -14t14 -34t-14 -34t-34 -14t-34 14t-14 34zM200 820q0 20 14 34t34 14t34 -14t14 -34t-14 -34t-34 -14t-34 14t-14 34z" />
    <glyph glyph-name="Zcaron" unicode="&#x17d;" horiz-adv-x="667" 
d="M51 545v164q294 -3 295 -3t295 3v-15l-491 -655h105q95 0 153.5 4t97 11t57.5 24t26 36t10 53h22v-170l-297 3q-1 0 -298 -3v15l483 655h-228q-117 0 -159.5 -29.5t-42.5 -92.5h-28zM367 750l-55 -8q-34 80 -105 135l14 15q64 -16 113 -65q60 51 116 65l11 -14
q-71 -69 -94 -128z" />
    <glyph glyph-name="zcaron" unicode="&#x17e;" horiz-adv-x="481" 
d="M34 10l294 403h-146q-47 0 -73 -23.5t-33 -82.5h-24q6 69 6 70q0 47 -2 70q93 -3 166 -3q71 0 224 3l-309 -416h157q66 0 92 23.5t37 82.5h24q-8 -69 -6 -140q-102 3 -222 3q-95 0 -185 -3v13zM274 538l-55 -8q-34 80 -105 135l14 15q64 -16 113 -65q60 51 116 65l11 -14
q-71 -69 -94 -128z" />
    <glyph glyph-name="florin" unicode="&#x192;" horiz-adv-x="556" 
d="M111 382l13 42h113l19 98q18 92 56 143t121 51q55 0 116 -22l-17 -112h-28q-2 104 -71 104q-74 0 -96 -126l-24 -136h130l-18 -42h-120l-46 -260q-16 -89 -36 -150.5t-42 -98t-53.5 -56.5t-61 -27t-74.5 -10v88h6q19 -46 63 -46q35 0 60 40.5t37 107.5l71 412h-118z" />
    <glyph glyph-name="circumflex" unicode="&#x2c6;" 
d="M106 672l55 8q34 -80 105 -135l-14 -15q-64 16 -113 65q-60 -51 -116 -65l-11 14q71 69 94 128z" />
    <glyph glyph-name="caron" unicode="&#x2c7;" 
d="M172 538l-55 -8q-34 80 -105 135l14 15q64 -16 113 -65q60 51 116 65l11 -14q-71 -69 -94 -128z" />
    <glyph glyph-name="uni02C9" unicode="&#x2c9;" 
d="M3 560v60h272v-60h-272z" />
    <glyph glyph-name="breve" unicode="&#x2d8;" 
d="M-18 644l25 10q12 -15 22.5 -24.5t40.5 -21t69 -11.5t69 11.5t40.5 21t22.5 24.5l25 -10q-9 -21 -24.5 -41t-51.5 -41t-81 -21t-81 21t-51.5 41t-24.5 41z" />
    <glyph glyph-name="dotaccent" unicode="&#x2d9;" 
d="M91 608q0 20 14 34t34 14t34 -14t14 -34t-14 -34t-34 -14t-34 14t-14 34z" />
    <glyph glyph-name="ring" unicode="&#x2da;" 
d="M38 616q0 42 29.5 71.5t71.5 29.5t71.5 -29.5t29.5 -71.5t-29.5 -71.5t-71.5 -29.5t-71.5 29.5t-29.5 71.5zM76 616q0 -26 18.5 -44.5t44.5 -18.5t44.5 18.5t18.5 44.5t-18.5 44.5t-44.5 18.5t-44.5 -18.5t-18.5 -44.5z" />
    <glyph glyph-name="ogonek" unicode="&#x2db;" 
d="M264 -174l14 -26q-38 -20 -96 -20q-36 0 -66.5 22t-30.5 66q0 37 26.5 73t78.5 59h38q-75 -52 -75 -120q0 -31 15.5 -48.5t41.5 -17.5q30 0 54 12z" />
    <glyph glyph-name="tilde" unicode="&#x2dc;" 
d="M278 635l22 -9q-14 -28 -23.5 -42.5t-26 -27t-36.5 -12.5q-38 0 -88 22q-52 23 -73 23q-30 0 -53 -39l-22 9q14 28 23.5 42.5t26 27t36.5 12.5q32 0 88 -22q56 -23 73 -23q30 0 53 39z" />
    <glyph glyph-name="hungarumlaut" unicode="&#x2dd;" 
d="M87 652l88 -6q-16 -43 -61.5 -78.5t-105.5 -37.5l-6 12q32 21 56.5 52.5t28.5 57.5zM269 652l88 -6q-16 -43 -61.5 -78.5t-105.5 -37.5l-6 12q32 21 56.5 52.5t28.5 57.5z" />
    <glyph glyph-name="uni03A9" unicode="&#x3a9;" horiz-adv-x="727" 
d="M693 139l-25 -139h-232l-6 18q5 10 29.5 53.5t38 70.5t31.5 70.5t26.5 86.5t8.5 86q-1 151 -59 223.5t-142 72.5q-89 0 -144.5 -73t-55.5 -228q0 -21 2.5 -43.5t5.5 -40.5t10.5 -41.5l11.5 -37t15.5 -38l16 -34.5t18.5 -35.5l17 -31t18.5 -32t16.5 -28.5l-8 -18h-230
l-23 139l23 1q15 -48 30.5 -63t46.5 -15h107q-31 28 -53.5 53t-52 67t-46 94.5t-16.5 110.5q0 145 83.5 234t208.5 89q127 0 207 -85t80 -230q0 -68 -30 -136.5t-62 -108.5t-78 -88h111q32 0 45.5 13.5t29.5 64.5z" />
    <glyph glyph-name="uni03BC" unicode="&#x3bc;" horiz-adv-x="574" 
d="M97 170v154q0 48 -32 48q-26 0 -45 -11v30q60 18 141 63h12v-263q0 -70 23 -109.5t81 -39.5q42 0 124 57v225q0 48 -32 48q-16 0 -41 -11v30q58 19 137 63h12v-353q0 -30 6 -39t17 -9q6 0 54 17v-30l-130 -56l-7 3q-10 25 -12 76q-2 -1 -22 -13.5l-25 -15.5l-22.5 -13
t-26.5 -13t-23.5 -8.5t-27 -7.5t-24.5 -2q-54 0 -89 33q0 -32 9 -101t9 -87q0 -25 -12.5 -40t-31.5 -15t-31.5 15t-12.5 40q0 12 5.5 54t11 116t5.5 165z" />
    <glyph glyph-name="pi" unicode="&#x3c0;" horiz-adv-x="562" 
d="M509 479l24 -9q-12 -52 -35 -84q-21 -5 -70 -5q-7 -66 -4 -245q0 -94 45 -94q24 0 51 32l13 -19q-37 -67 -100 -67q-42 0 -64 28.5t-22 99.5q0 88 11 268q-120 2 -163 2v-21q0 -105 -14.5 -191t-28 -121.5t-24.5 -47.5q-36 -16 -57 -17l-6 16q50 62 72 172t22 211
q-32 0 -57.5 -7t-36.5 -14.5l-36 -25.5l-14 20q1 1 9 10.5t10.5 12t10.5 11.5t12.5 12.5l14 10.5t17 10.5l19 8.5t22.5 7t24.5 3.5t28.5 1.5q17 0 59 -0.5t65 -0.5q92 -2 143 -2q23 0 35 6.5t24 27.5z" />
    <glyph glyph-name="endash" unicode="&#x2013;" horiz-adv-x="500" 
d="M0 208v52h500v-52h-500z" />
    <glyph glyph-name="emdash" unicode="&#x2014;" horiz-adv-x="1000" 
d="M0 208v52h1000v-52h-1000z" />
    <glyph glyph-name="quoteleft" unicode="&#x2018;" 
d="M185 722l25 -10q-58 -60 -58 -110q0 -56 45 -88l-76 -42q-29 46 -29 92q0 41 20 76.5t73 81.5z" />
    <glyph glyph-name="quoteright" unicode="&#x2019;" 
d="M93 472l-25 10q58 60 58 110q0 56 -45 88l76 42q29 -46 29 -92q0 -41 -20 -76.5t-73 -81.5z" />
    <glyph glyph-name="quotesinglbase" unicode="&#x201a;" 
d="M98 -180l-25 10q58 60 58 110q0 56 -45 88l76 42q29 -46 29 -92q0 -41 -20 -76.5t-73 -81.5z" />
    <glyph glyph-name="quotedblleft" unicode="&#x201c;" horiz-adv-x="370" 
d="M303 722l25 -10q-58 -60 -58 -110q0 -56 45 -88l-76 -42q-29 46 -29 92q0 41 20 76.5t73 81.5zM135 722l25 -10q-58 -60 -58 -110q0 -56 45 -88l-76 -42q-29 46 -29 92q0 41 20 76.5t73 81.5z" />
    <glyph glyph-name="quotedblright" unicode="&#x201d;" horiz-adv-x="370" 
d="M67 472l-25 10q58 60 58 110q0 56 -45 88l76 42q29 -46 29 -92q0 -41 -20 -76.5t-73 -81.5zM235 472l-25 10q58 60 58 110q0 56 -45 88l76 42q29 -46 29 -92q0 -41 -20 -76.5t-73 -81.5z" />
    <glyph glyph-name="quotedblbase" unicode="&#x201e;" horiz-adv-x="370" 
d="M58 -180l-25 10q58 60 58 110q0 56 -45 88l76 42q29 -46 29 -92q0 -41 -20 -76.5t-73 -81.5zM226 -180l-25 10q58 60 58 110q0 56 -45 88l76 42q29 -46 29 -92q0 -41 -20 -76.5t-73 -81.5z" />
    <glyph glyph-name="dagger" unicode="&#x2020;" horiz-adv-x="556" 
d="M244 0v474h-171v60h171v172h68v-172h171v-60h-171v-474h-68z" />
    <glyph glyph-name="daggerdbl" unicode="&#x2021;" horiz-adv-x="556" 
d="M244 0v246h-171v60h171v168h-171v60h171v172h68v-172h171v-60h-171v-168h171v-60h-171v-246h-68z" />
    <glyph glyph-name="bullet" unicode="&#x2022;" horiz-adv-x="500" 
d="M73 353q0 73 51.5 125t125.5 52t125.5 -52t51.5 -125t-51.5 -125t-125.5 -52t-125.5 52t-51.5 125z" />
    <glyph glyph-name="ellipsis" unicode="&#x2026;" horiz-adv-x="1000" 
d="M115 42q0 22 15 37t37 15t37 -15t15 -37t-15 -37t-37 -15t-37 15t-15 37zM448 42q0 22 15 37t37 15t37 -15t15 -37t-15 -37t-37 -15t-37 15t-15 37zM781 42q0 22 15 37t37 15t37 -15t15 -37t-15 -37t-37 -15t-37 15t-15 37z" />
    <glyph glyph-name="perthousand" unicode="&#x2030;" horiz-adv-x="1111" 
d="M838 188q0 -87 20 -131.5t68 -44.5t68 44.5t20 131.5q0 184 -88 184t-88 -184zM778 188q0 99 40 152.5t108 53.5t108 -53.5t40 -152.5q0 -95 -40 -146.5t-108 -51.5t-108 51.5t-40 146.5zM483 188q0 -87 20 -131.5t68 -44.5t68 44.5t20 131.5q0 184 -88 184t-88 -184z
M423 188q0 99 40 152.5t108 53.5t108 -53.5t40 -152.5q0 -95 -40 -146.5t-108 -51.5t-108 51.5t-40 146.5zM37 510q0 99 40 152.5t108 53.5t108 -53.5t40 -152.5q0 -95 -40 -146.5t-108 -51.5t-108 51.5t-40 146.5zM97 510q0 -87 20 -131.5t68 -44.5t68 44.5t20 131.5
q0 184 -88 184t-88 -184zM199 -16l316 738h42l-316 -738h-42z" />
    <glyph glyph-name="guilsinglleft" unicode="&#x2039;" horiz-adv-x="259" 
d="M177 49l-132 197l155 173h38l-117 -173l94 -197h-38z" />
    <glyph glyph-name="guilsinglright" unicode="&#x203a;" horiz-adv-x="259" 
d="M82 419l132 -197l-155 -173h-38l117 173l-94 197h38z" />
    <glyph glyph-name="fraction" unicode="&#x2044;" horiz-adv-x="167" 
d="M-163 -16l445 738h48l-445 -738h-48z" />
    <glyph glyph-name="Euro" unicode="&#x20ac;" horiz-adv-x="556" 
d="M529 120h7v-76q-29 -17 -67 -31q-62 -23 -132 -23q-45 0 -84 13q-108 36 -156 164q-20 57 -24 105h-83l16 38h65q0 2 -0.5 7t-0.5 8q0 43 3 65h-83l16 38h73q20 122 107 203q91 85 216 85q54 0 128 -25l-4 -115h-16q-2 12 -10 29q-13 28 -33 45q-37 32 -89 32
q-104 0 -164 -100q-25 -44 -40 -99q-7 -24 -10 -55h277l-16 -38h-265q-2 -28 -2 -42v-38h236l-16 -38h-217q8 -96 55 -165q59 -87 155 -87q20 0 49 9q22 7 42 21q39 27 67 70z" />
    <glyph glyph-name="afii61289" unicode="&#x2113;" horiz-adv-x="403" 
d="M367 116l19 -16q-59 -108 -161 -108q-68 0 -99 39q-34 43 -34 147v87l-60 -47l-12 23l72 59v129q0 129 10 183t42 91q36 46 82 46q42 0 64.5 -38t22.5 -95q0 -150 -147 -302v-97q0 -97 22.5 -135t68.5 -38q61 0 110 72zM166 490v-132q45 54 72 122.5t27 134.5
q0 46 -12 75t-35 29q-28 0 -40 -52t-12 -177z" />
    <glyph glyph-name="trademark" unicode="&#x2122;" horiz-adv-x="1000" 
d="M41 618v88h340v-88h-18q-19 70 -69 70h-51v-311q0 -37 7.5 -45t42.5 -12v-18h-164v18q35 4 42.5 12t7.5 45v311h-51q-50 0 -69 -70h-18zM696 391l163 315h100v-18q-31 -1 -44 -15.5t-13 -42.5v-245q0 -34 9.5 -47.5t41.5 -17.5v-18h-166v18q32 4 41.5 17.5t9.5 47.5v228
h-2l-155 -311h-9l-153 308h-2v-225q0 -34 9.5 -47.5t41.5 -17.5v-18h-128v18q32 4 41.5 17.5t9.5 47.5v252q-7 22 -26.5 36.5t-40.5 14.5v18h115z" />
    <glyph glyph-name="Omega" unicode="&#x2126;" horiz-adv-x="727" 
d="M693 139l-25 -139h-232l-6 18q5 10 29.5 53.5t38 70.5t31.5 70.5t26.5 86.5t8.5 86q-1 151 -59 223.5t-142 72.5q-89 0 -144.5 -73t-55.5 -228q0 -21 2.5 -43.5t5.5 -40.5t10.5 -41.5l11.5 -37t15.5 -38l16 -34.5t18.5 -35.5l17 -31t18.5 -32t16.5 -28.5l-8 -18h-230
l-23 139l23 1q15 -48 30.5 -63t46.5 -15h107q-31 28 -53.5 53t-52 67t-46 94.5t-16.5 110.5q0 145 83.5 234t208.5 89q127 0 207 -85t80 -230q0 -68 -30 -136.5t-62 -108.5t-78 -88h111q32 0 45.5 13.5t29.5 64.5z" />
    <glyph glyph-name="estimated" unicode="&#x212e;" horiz-adv-x="874" 
d="M839 342h-652q-5 0 -5 -4v-197q0 -12 8 -23q105 -107 247 -107q155 0 260 120h57q-54 -65 -138 -102.5t-180 -37.5q-166 0 -284 106t-118 255q0 150 117.5 256t284.5 106t285 -106t118 -256v-10zM691 368v198q0 15 -9 24q-106 103 -245 103q-140 0 -246 -106
q-9 -11 -9 -25v-194q0 -6 5 -6h500q4 0 4 6z" />
    <glyph glyph-name="partialdiff" unicode="&#x2202;" horiz-adv-x="525" 
d="M261 439h1q38 0 76 -18.5t62 -54.5q7 80 8 107q2 90 -27 162q-17 41 -54 72.5t-82 31.5q-70 0 -135 -56q-12 -2 -23.5 20t-4.5 38q65 42 139 42q129 0 203 -143q49 -96 49 -235q0 -154 -48 -257q-70 -156 -200 -156q-82 0 -131.5 54.5t-49.5 149.5q0 97 58 168
q28 33 70.5 54t88.5 21zM281 401h-1q-69 0 -113 -60q-45 -68 -45 -183q0 -58 27.5 -97t74.5 -39q73 0 119 107q33 69 50 195q-12 27 -43.5 52t-68.5 25z" />
    <glyph glyph-name="Delta" unicode="&#x2206;" horiz-adv-x="629" 
d="M594 0h-559v22l258 677l35 11l266 -688v-22zM497 44l-208 547l-203 -547h411z" />
    <glyph glyph-name="product" unicode="&#x220f;" horiz-adv-x="678" 
d="M649 701v-25q-63 -4 -77 -14.5t-14 -51.5v-597q0 -47 14 -59.5t75 -16.5v-25h-250v25q60 4 72.5 15t12.5 61v624q0 21 -6.5 26.5t-28.5 5.5h-219q-21 0 -27 -5t-6 -23v-628q0 -48 10.5 -59.5t66.5 -16.5v-25h-242v25q60 5 74 16.5t14 59.5v597q0 41 -13.5 51.5
t-77.5 14.5v25h622z" />
    <glyph glyph-name="summation" unicode="&#x2211;" horiz-adv-x="550" 
d="M526 92l-43 -182h-454v22l226 356l-221 390v23h450q0 -5 12 -159l-26 -6q-11 70 -32 103q-10 18 -29.5 24.5t-74.5 6.5h-201l191 -331l-225 -361h263q66 0 87 18t51 103z" />
    <glyph glyph-name="minus" unicode="&#x2212;" horiz-adv-x="600" 
d="M47 223v60h506v-60h-506z" />
    <glyph glyph-name="uni2215" unicode="&#x2215;" horiz-adv-x="167" 
d="M-163 -16l445 738h48l-445 -738h-48z" />
    <glyph glyph-name="uni2219" unicode="&#x2219;" 
d="M87 315q0 22 15 37t37 15t37 -15t15 -37t-15 -37t-37 -15t-37 15t-15 37z" />
    <glyph glyph-name="radical" unicode="&#x221a;" horiz-adv-x="548" 
d="M529 901l-164 -1047l-19 -11l-218 558l-87 -42l-11 31l150 71l172 -455h2l138 904z" />
    <glyph glyph-name="infinity" unicode="&#x221e;" horiz-adv-x="755" 
d="M706 291v-1q0 -70 -44.5 -113.5t-105.5 -43.5q-44 0 -85 27t-93 88q-47 -56 -88.5 -85.5t-94.5 -29.5q-60 0 -103.5 44t-43.5 109q0 68 43.5 112t110.5 44q50 0 91.5 -29.5t88.5 -84.5q57 64 86 84q44 31 94 30q64 0 104 -42t40 -109zM202 182h1q11 0 22.5 3t20 6.5
t21 12l18 12.5t18.5 17t16 16.5l16.5 18.5t14.5 16q-30 38 -45 55t-46 36t-63 19q-44 0 -70 -31.5t-25 -77.5q0 -43 28.5 -73t72.5 -30zM557 394h-1q-18 0 -35.5 -6.5t-35.5 -21t-28 -24.5t-28 -30t-21 -23q52 -60 83.5 -83.5t67.5 -23.5q43 0 69 32t26 72q0 50 -27 79
t-70 29z" />
    <glyph glyph-name="integral" unicode="&#x222b;" horiz-adv-x="369" 
d="M161 19l-19 419q-19 417 147 417q21 0 39 -11.5t19 -32.5q0 -19 -12 -29.5t-29 -10.5q-16 0 -28 21.5t-23 21.5q-13 0 -23.5 -12.5t-17.5 -53.5t-4 -106l18 -392q21 -446 -148 -446q-26 0 -42 13t-16 32q-1 18 13 30.5t34 12.5q14 0 26.5 -22.5t22.5 -22.5q23 0 35 47
t8 125z" />
    <glyph glyph-name="approxequal" unicode="&#x2248;" horiz-adv-x="542" 
d="M464 431l34 -29q-49 -94 -127 -94q-43 0 -112 40q-56 33 -88 33q-31 0 -52 -18.5t-43 -53.5l-35 28q22 43 58 68.5t78 25.5q13 0 26 -2.5t25 -7.5t20 -9t20 -11t16 -9q3 -2 13.5 -7.5t13.5 -7.5t11.5 -6t13 -5.5t11 -4t13 -3t13.5 -0.5q28 0 48.5 17.5t42.5 55.5z
M464 263l34 -29q-49 -94 -127 -94q-27 0 -49.5 9t-62.5 31q-55 33 -88 33q-31 0 -52.5 -19t-42.5 -53l-35 28q22 44 58 69.5t78 25.5q17 0 34.5 -5t26 -8.5t27 -14t19.5 -11.5q3 -2 17 -10t18.5 -10t15.5 -6.5t19.5 -6t18.5 -1.5q28 0 48 17.5t43 54.5z" />
    <glyph glyph-name="notequal" unicode="&#x2260;" horiz-adv-x="542" 
d="M386 499l-42 -93h147v-52h-167l-64 -140h231v-52h-252l-51 -113l-41 18l43 95h-141v52h163l62 140h-225v52h246l50 111z" />
    <glyph glyph-name="lessequal" unicode="&#x2264;" horiz-adv-x="542" 
d="M489 101l-435 220v55l435 219v-61l-380 -184v-2l380 -185v-62zM492 9h-443v53h443v-53z" />
    <glyph glyph-name="greaterequal" unicode="&#x2265;" horiz-adv-x="542" 
d="M55 595l435 -219v-55l-435 -220v62l380 184v3l-380 184v61zM491 9h-441v53h441v-53z" />
    <glyph glyph-name="lozenge" unicode="&#x25ca;" horiz-adv-x="554" 
d="M505 338l-198 -407h-60l-198 407l199 411h60zM447 338l-167 353h-3l-169 -351l169 -353h3z" />
    </font>
</defs>
</svg>
