<svg id="Layer_1" data-name="Layer 1" xmlns="http://www.w3.org/2000/svg" viewBox="0 0 200 60"><defs><style>.cls-1{fill:#252d68;}</style></defs><title>anchor_logo</title><path class="cls-1" d="M74.34,23.8h4.09L89.89,50.39H84.48L82,44.31H70.47l-2.41,6.08H62.77Zm6,16.45L76.25,29.43,72.08,40.25Z"/><path class="cls-1" d="M93,32.36h4.29v2.89h.07a6.38,6.38,0,0,1,2-2.34,5.75,5.75,0,0,1,3.57-1,7.08,7.08,0,0,1,3.06.6,5.75,5.75,0,0,1,2,1.58,6,6,0,0,1,1.13,2.25,10.68,10.68,0,0,1,.34,2.67V50.39H105V41.26c0-.5,0-1-.08-1.67a6,6,0,0,0-.39-1.72,3.29,3.29,0,0,0-1-1.36,2.86,2.86,0,0,0-1.84-.54,4.27,4.27,0,0,0-1.89.37,3.58,3.58,0,0,0-1.28,1,3.94,3.94,0,0,0-.73,1.46,6.57,6.57,0,0,0-.23,1.73v9.84H93Z"/><path class="cls-1" d="M127.45,37.77a7.08,7.08,0,0,0-1.66-1.31A3.47,3.47,0,0,0,124,36a5.24,5.24,0,0,0-2.22.45,5.32,5.32,0,0,0-1.67,1.2,5.18,5.18,0,0,0-1,1.73,5.9,5.9,0,0,0,0,4.06,5.14,5.14,0,0,0,1,1.72,5.32,5.32,0,0,0,1.67,1.2,5.09,5.09,0,0,0,2.22.46,4.43,4.43,0,0,0,2-.44,4.12,4.12,0,0,0,1.54-1.25l3,3.23A6.74,6.74,0,0,1,129,49.49a10.31,10.31,0,0,1-1.78.79,11.48,11.48,0,0,1-1.73.43,9,9,0,0,1-1.43.13,10.83,10.83,0,0,1-3.83-.67,9.19,9.19,0,0,1-3.12-1.92,9,9,0,0,1-2.08-3,10.19,10.19,0,0,1,0-7.77,9,9,0,0,1,2.08-3,9.33,9.33,0,0,1,3.12-1.91,10.83,10.83,0,0,1,3.83-.68,9.74,9.74,0,0,1,3.47.66,8,8,0,0,1,3.07,2.08Z"/><path class="cls-1" d="M138.3,34.88h.08a5.31,5.31,0,0,1,1.86-2.05,6,6,0,0,1,3.44-.92,7.08,7.08,0,0,1,3.06.6,5.71,5.71,0,0,1,2,1.58,5.83,5.83,0,0,1,1.13,2.25,10.23,10.23,0,0,1,.34,2.67V50.39h-4.51V41.26c0-.5,0-1-.07-1.67a6,6,0,0,0-.4-1.72,3.26,3.26,0,0,0-1-1.36,2.88,2.88,0,0,0-1.84-.54,4.29,4.29,0,0,0-1.9.37,3.58,3.58,0,0,0-1.28,1,3.94,3.94,0,0,0-.73,1.46,6.57,6.57,0,0,0-.23,1.73v9.84h-4.5V22h4.5Z"/><path class="cls-1" d="M155,41.38a9.58,9.58,0,0,1,.77-3.89,9.12,9.12,0,0,1,2.08-3A9.33,9.33,0,0,1,161,32.59a11.13,11.13,0,0,1,7.66,0,8.94,8.94,0,0,1,5.21,4.9,10.19,10.19,0,0,1,0,7.77,9.15,9.15,0,0,1-2.09,3,9,9,0,0,1-3.12,1.92,11.28,11.28,0,0,1-7.66,0,8.94,8.94,0,0,1-5.2-4.91A9.56,9.56,0,0,1,155,41.38Zm4.51,0a5.86,5.86,0,0,0,.35,2,5.14,5.14,0,0,0,1.05,1.72,5.25,5.25,0,0,0,1.68,1.2,5.56,5.56,0,0,0,4.43,0,5.21,5.21,0,0,0,1.67-1.2,5.14,5.14,0,0,0,1-1.72,5.9,5.9,0,0,0,0-4.06A5.11,5.11,0,0,0,167,36.42a5.36,5.36,0,0,0-6.11,1.2,5.18,5.18,0,0,0-1.05,1.73A5.82,5.82,0,0,0,159.53,41.38Z"/><path class="cls-1" d="M179.4,32.36h4.5v2.86H184a5.61,5.61,0,0,1,2.14-2.44,5.89,5.89,0,0,1,3.19-.87,4.28,4.28,0,0,1,.81.08l.81.18v4.36q-.57-.15-1.11-.24a5.61,5.61,0,0,0-1.07-.1,4.85,4.85,0,0,0-2.54.59,4.51,4.51,0,0,0-1.46,1.33,4.35,4.35,0,0,0-.68,1.5,5.91,5.91,0,0,0-.17,1.13v9.65h-4.5Z"/><rect class="cls-1" x="25.78" y="10.52" width="3.18" height="43.9"/><rect class="cls-1" x="17.36" y="17.28" width="20.05" height="3.18"/><rect class="cls-1" x="17.36" y="9.89" width="20.05" height="3.18"/><path class="cls-1" d="M27.39,56A22.46,22.46,0,0,1,5,33.57H8.13a19.26,19.26,0,1,0,38.51,0h3.19A22.47,22.47,0,0,1,27.39,56Z"/><rect class="cls-1" x="43.26" y="31.98" width="10.03" height="3.18"/><rect class="cls-1" x="1.52" y="31.98" width="10.03" height="3.18"/></svg>