<?xml version="1.0" standalone="no"?>
<!DOCTYPE svg PUBLIC "-//W3C//DTD SVG 20010904//EN"
 "http://www.w3.org/TR/2001/REC-SVG-20010904/DTD/svg10.dtd">
<svg version="1.0" xmlns="http://www.w3.org/2000/svg"
 width="6000.000000pt" height="3750.000000pt" viewBox="0 0 6000.000000 3750.000000"
 preserveAspectRatio="xMidYMid meet">

<g transform="translate(0.000000,3750.000000) scale(0.100000,-0.100000)"
fill="#000000" stroke="none">
<path d="M54865 24763 c-970 -38 -1815 -117 -2785 -258 -3031 -443 -6440
-1443 -9800 -2877 -1575 -672 -2488 -1145 -4903 -2542 -1114 -644 -1711 -981
-2272 -1283 -1373 -740 -2481 -1239 -3550 -1599 -2268 -766 -4382 -948 -6222
-538 -1129 251 -2114 712 -3171 1482 -590 431 -1080 844 -2177 1837 -1152
1043 -1671 1477 -2265 1897 -1351 953 -2586 1369 -3910 1317 -222 -9 -238 -10
-455 -35 -808 -94 -1663 -364 -2745 -866 -275 -127 -925 -452 -1475 -738
-1076 -558 -1724 -863 -2310 -1088 -1324 -508 -2689 -792 -4152 -863 -318 -15
-1211 -6 -1493 15 -402 31 -839 78 -1098 119 l-82 14 0 -9379 0 -9378 30000 0
30000 0 0 12089 0 12088 -197 56 c-1068 303 -2173 471 -3463 527 -204 9 -1278
11 -1475 3z m-377 -12540 c130 -75 239 -138 241 -140 2 -1 -107 -3 -242 -3
l-247 0 0 140 c0 77 3 140 6 140 3 0 112 -61 242 -137z m-522 -611 c-3 -2 -84
0 -181 4 -173 7 -176 7 -171 28 3 12 6 56 6 98 l0 76 175 -101 c96 -56 173
-103 171 -105z m812 -252 l269 -155 -66 -3 c-36 -2 -162 -1 -278 3 l-213 7 0
155 c0 95 4 153 10 151 5 -1 130 -73 278 -158z m-2833 -1375 c94 -25 172 -73
270 -167 l90 -87 -442 -1 c-248 0 -443 4 -443 9 0 15 139 140 194 176 123 78
219 99 331 70z m-1469 -625 c184 -47 345 -149 534 -339 l135 -136 -417 -3
c-230 -1 -606 -1 -835 0 l-418 3 110 114 c134 139 248 226 380 292 180 89 344
111 511 69z m1261 -1186 c92 -19 180 -57 274 -119 74 -50 210 -173 260 -236
l31 -39 -666 0 c-464 0 -666 3 -666 11 0 5 44 54 98 108 153 151 304 243 457
276 81 18 122 18 212 -1z m-43146 -159 c411 -85 750 -155 753 -155 3 0 6 -94
6 -210 l0 -210 -770 0 -770 0 0 371 c0 348 1 370 18 365 9 -3 353 -75 763
-161z m-5798 -116 c51 -14 115 -73 140 -129 93 -208 -128 -411 -332 -305 -42
21 -98 89 -110 132 -24 85 -3 182 52 242 54 59 162 85 250 60z m-605 -494 c84
-36 126 -106 120 -201 -3 -52 -9 -70 -34 -101 -70 -87 -190 -108 -276 -47
-130 92 -106 294 43 353 37 15 106 13 147 -4z m8559 -749 c277 -459 330 -552
320 -565 -7 -9 -158 -186 -336 -393 l-323 -378 -297 0 c-163 0 -1439 0 -2836
0 l-2540 0 -355 194 -355 194 -3 399 -2 400 362 351 363 351 2835 -2 2835 -2
332 -549z m-6957 -555 l0 -526 -191 -110 c-105 -60 -195 -111 -200 -113 -5 -2
-9 292 -9 751 l0 755 200 -115 200 -116 0 -526z m-1309 654 c63 -33 85 -110
51 -174 -66 -122 -242 -73 -242 68 0 37 6 49 39 82 32 33 45 39 80 39 23 0 55
-7 72 -15z"/>
<path d="M8425 6780 c-113 -56 -122 -216 -15 -287 46 -32 134 -32 181 0 39 26
79 97 79 143 0 51 -40 115 -90 141 -53 28 -102 29 -155 3z"/>
<path d="M9055 6777 c-55 -30 -88 -95 -82 -160 8 -89 74 -147 167 -147 97 0
162 63 162 159 0 133 -132 212 -247 148z"/>
<path d="M9705 6785 c-66 -36 -95 -83 -95 -156 0 -56 39 -121 84 -143 49 -23
131 -21 173 5 64 40 94 150 58 219 -38 74 -151 112 -220 75z"/>
</g>
</svg>
